<?xml version="1.0" encoding="UTF-8" standalone="no"?>
<!DOCTYPE svg PUBLIC "-//W3C//DTD SVG 1.0//EN" "http://www.w3.org/TR/2001/PR-SVG-20010719/DTD/svg10.dtd">
<svg width="64cm" height="31cm" viewBox="-1092 -738 1264 604" xmlns="http://www.w3.org/2000/svg" xmlns:xlink="http://www.w3.org/1999/xlink">
  <g>
    <rect style="fill: #ffffff" x="-577.671" y="-478.291" width="55.65" height="28.4667"/>
    <rect style="fill: none; fill-opacity:0; stroke-width: 2; stroke: #000000" x="-577.671" y="-478.291" width="55.65" height="28.4667"/>
    <text font-size="6.77333" style="fill: #000000;text-anchor:middle;font-family:Cascadia Code Light;font-style:normal;font-weight:300" x="-549.846" y="-461.094">Cliente</text>
  </g>
  <g>
    <polygon style="fill: #ffffff" points="-426.588,-463.378 -390.788,-484.858 -354.988,-463.378 -390.788,-441.898 "/>
    <polygon style="fill: none; fill-opacity:0; stroke-width: 2; stroke: #000000" points="-426.588,-463.378 -390.788,-484.858 -354.988,-463.378 -390.788,-441.898 "/>
    <text font-size="6.77333" style="fill: #000000;text-anchor:end;font-family:Cascadia Code Light;font-style:normal;font-weight:300" x="-432.588" y="-469.378"></text>
    <text font-size="6.77333" style="fill: #000000;text-anchor:start;font-family:Cascadia Code Light;font-style:normal;font-weight:300" x="-348.988" y="-469.378"></text>
    <text font-size="6.77333" style="fill: #000000;text-anchor:middle;font-family:Cascadia Code Light;font-style:normal;font-weight:300" x="-390.788" y="-460.415">Consulta</text>
  </g>
  <g>
    <rect style="fill: #ffffff" x="-252.706" y="-477.114" width="55.65" height="28.4667"/>
    <rect style="fill: none; fill-opacity:0; stroke-width: 2; stroke: #000000" x="-252.706" y="-477.114" width="55.65" height="28.4667"/>
    <text font-size="6.77333" style="fill: #000000;text-anchor:middle;font-family:Cascadia Code Light;font-style:normal;font-weight:300" x="-224.881" y="-459.917">Tecnico</text>
  </g>
  <g>
    <rect style="fill: #ffffff" x="-256.581" y="-239.515" width="63.55" height="28.4667"/>
    <rect style="fill: none; fill-opacity:0; stroke-width: 2; stroke: #000000" x="-256.581" y="-239.515" width="63.55" height="28.4667"/>
    <text font-size="6.77333" style="fill: #000000;text-anchor:middle;font-family:Cascadia Code Light;font-style:normal;font-weight:300" x="-224.806" y="-222.319">Proveedor</text>
  </g>
  <g>
    <rect style="fill: #ffffff" x="57.1532" y="-478.592" width="63.55" height="28.4667"/>
    <rect style="fill: none; fill-opacity:0; stroke-width: 2; stroke: #000000" x="57.1532" y="-478.592" width="63.55" height="28.4667"/>
    <text font-size="6.77333" style="fill: #000000;text-anchor:middle;font-family:Cascadia Code Light;font-style:normal;font-weight:300" x="88.9282" y="-461.396">productos</text>
  </g>
  <g>
    <polygon style="fill: #ffffff" points="-256.002,-312.42 -224.152,-331.53 -192.302,-312.42 -224.152,-293.31 "/>
    <polygon style="fill: none; fill-opacity:0; stroke-width: 2; stroke: #000000" points="-256.002,-312.42 -224.152,-331.53 -192.302,-312.42 -224.152,-293.31 "/>
    <text font-size="6.77333" style="fill: #000000;text-anchor:end;font-family:Cascadia Code Light;font-style:normal;font-weight:300" x="-262.002" y="-318.42"></text>
    <text font-size="6.77333" style="fill: #000000;text-anchor:start;font-family:Cascadia Code Light;font-style:normal;font-weight:300" x="-186.302" y="-318.42"></text>
    <text font-size="6.77333" style="fill: #000000;text-anchor:middle;font-family:Cascadia Code Light;font-style:normal;font-weight:300" x="-224.152" y="-309.457">compra</text>
  </g>
  <g>
    <polygon style="fill: #ffffff" points="-105.521,-463.575 -75.6464,-481.5 -45.7714,-463.575 -75.6464,-445.65 "/>
    <polygon style="fill: none; fill-opacity:0; stroke-width: 2; stroke: #000000" points="-105.521,-463.575 -75.6464,-481.5 -45.7714,-463.575 -75.6464,-445.65 "/>
    <text font-size="6.77333" style="fill: #000000;text-anchor:end;font-family:Cascadia Code Light;font-style:normal;font-weight:300" x="-111.521" y="-469.575"></text>
    <text font-size="6.77333" style="fill: #000000;text-anchor:start;font-family:Cascadia Code Light;font-style:normal;font-weight:300" x="-39.7714" y="-469.575"></text>
    <text font-size="6.77333" style="fill: #000000;text-anchor:middle;font-family:Cascadia Code Light;font-style:normal;font-weight:300" x="-75.6464" y="-460.612">Tiene</text>
  </g>
  <line style="fill: none; fill-opacity:0; stroke-width: 1; stroke: #000000" x1="-426.588" y1="-463.378" x2="-521.048" y2="-463.899"/>
  <g>
    <ellipse style="fill: #ffffff" cx="-617.74" cy="-428.915" rx="35.8" ry="14.2333"/>
    <ellipse style="fill: none; fill-opacity:0; stroke-width: 1; stroke: #000000" cx="-617.74" cy="-428.915" rx="35.8" ry="14.2333"/>
    <text font-size="6.77333" style="fill: #000000;text-anchor:middle;font-family:Cascadia Code Light;font-style:normal;font-weight:300" x="-617.74" y="-425.951">telefono</text>
  </g>
  <line style="fill: none; fill-opacity:0; stroke-width: 1; stroke: #000000" x1="-354.988" y1="-463.378" x2="-252.706" y2="-462.88"/>
  <line style="fill: none; fill-opacity:0; stroke-width: 1; stroke: #000000" x1="57.1532" y1="-464.359" x2="-45.7714" y2="-463.574"/>
  <line style="fill: none; fill-opacity:0; stroke-width: 1; stroke: #000000" x1="-224.806" y1="-239.515" x2="-224.332" y2="-292.325"/>
  <line style="fill: none; fill-opacity:0; stroke-width: 1; stroke: #000000" x1="-581.2" y1="-429.342" x2="-550.081" y2="-428.859"/>
  <g>
    <ellipse style="fill: #ffffff" cx="-614.343" cy="-399.155" rx="37.775" ry="14.2333"/>
    <ellipse style="fill: none; fill-opacity:0; stroke-width: 1; stroke: #000000" cx="-614.343" cy="-399.155" rx="37.775" ry="14.2333"/>
    <text font-size="6.77333" style="fill: #000000;text-anchor:middle;font-family:Cascadia Code Light;font-style:normal;font-weight:300" x="-614.343" y="-396.191">direccion</text>
  </g>
  <line style="fill: none; fill-opacity:0; stroke-width: 1; stroke: #000000" x1="-561.756" y1="-398.68" x2="-576.568" y2="-399.154"/>
  <g>
    <ellipse style="fill: #ffffff" cx="-608.161" cy="-369.883" rx="25.925" ry="14.2333"/>
    <ellipse style="fill: none; fill-opacity:0; stroke-width: 1; stroke: #000000" cx="-608.161" cy="-369.883" rx="25.925" ry="14.2333"/>
    <text font-size="6.77333" style="fill: #000000;text-anchor:middle;font-family:Cascadia Code Light;font-style:normal;font-weight:300" x="-608.161" y="-366.919">dni</text>
  </g>
  <g>
    <ellipse style="fill: #ffffff" cx="-610.628" cy="-339.105" rx="31.85" ry="14.2333"/>
    <ellipse style="fill: none; fill-opacity:0; stroke-width: 1; stroke: #000000" cx="-610.628" cy="-339.105" rx="31.85" ry="14.2333"/>
    <text font-size="6.77333" style="fill: #000000;text-anchor:middle;font-family:Cascadia Code Light;font-style:normal;font-weight:300" x="-610.628" y="-336.141">nombre</text>
  </g>
  <line style="fill: none; fill-opacity:0; stroke-width: 1; stroke: #000000" x1="-560.76" y1="-369.266" x2="-582.236" y2="-369.884"/>
  <line style="fill: none; fill-opacity:0; stroke-width: 1; stroke: #000000" x1="-559.264" y1="-338.854" x2="-578.778" y2="-339.104"/>
  <g>
    <ellipse style="fill: #ffffff" cx="-628.141" cy="-310.14" rx="35.8" ry="14.2333"/>
    <ellipse style="fill: none; fill-opacity:0; stroke-width: 1; stroke: #000000" cx="-628.141" cy="-310.14" rx="35.8" ry="14.2333"/>
    <text font-size="6.77333" style="fill: #000000;text-anchor:middle;font-family:Cascadia Code Light;font-style:normal;font-weight:300" x="-628.141" y="-307.177">apellido</text>
  </g>
  <g>
    <ellipse style="fill: #ffffff" cx="-623.328" cy="-275.389" rx="29.875" ry="14.2333"/>
    <ellipse style="fill: none; fill-opacity:0; stroke-width: 1; stroke: #000000" cx="-623.328" cy="-275.389" rx="29.875" ry="14.2333"/>
    <text font-size="6.77333" style="fill: #000000;text-anchor:middle;font-family:Cascadia Code Light;font-style:normal;font-weight:300" x="-623.328" y="-272.426">email</text>
  </g>
  <line style="fill: none; fill-opacity:0; stroke-width: 1; stroke: #000000" x1="-549.02" y1="-309.712" x2="-592.341" y2="-310.14"/>
  <line style="fill: none; fill-opacity:0; stroke-width: 1; stroke: #000000" x1="-550.081" y1="-272.942" x2="-593.453" y2="-275.389"/>
  <g>
    <ellipse style="fill: #ffffff" cx="-486.89" cy="-428.77" rx="49.625" ry="14.2333"/>
    <ellipse style="fill: none; fill-opacity:0; stroke-width: 1; stroke: #000000" cx="-486.89" cy="-428.77" rx="49.625" ry="14.2333"/>
    <text font-size="6.77333" style="fill: #000000;text-anchor:middle;font-family:Cascadia Code Light;font-style:normal;font-weight:300" x="-486.89" y="-425.806">fechaNacimiento</text>
  </g>
  <line style="fill: none; fill-opacity:0; stroke-width: 1; stroke: #000000" x1="-536.994" y1="-428.383" x2="-550.133" y2="-428.281"/>
  <g>
    <ellipse style="fill: #ffffff" cx="-479.981" cy="-397.763" rx="45.675" ry="14.2333"/>
    <ellipse style="fill: none; fill-opacity:0; stroke-width: 1; stroke: #000000" cx="-479.981" cy="-397.763" rx="45.675" ry="14.2333"/>
    <text font-size="6.77333" style="fill: #000000;text-anchor:middle;font-family:Cascadia Code Light;font-style:normal;font-weight:300" x="-479.981" y="-394.799">nivelDeAcceso</text>
  </g>
  <g>
    <ellipse style="fill: #ffffff" cx="-482.653" cy="-366.717" rx="33.825" ry="14.2333"/>
    <ellipse style="fill: none; fill-opacity:0; stroke-width: 1; stroke: #000000" cx="-482.653" cy="-366.717" rx="33.825" ry="14.2333"/>
    <text font-size="6.77333" style="fill: #000000;text-anchor:middle;font-family:Cascadia Code Light;font-style:normal;font-weight:300" x="-482.653" y="-363.753">usuario</text>
  </g>
  <g>
    <ellipse style="fill: #ffffff" cx="-477.512" cy="-338.057" rx="39.75" ry="14.2333"/>
    <ellipse style="fill: none; fill-opacity:0; stroke-width: 1; stroke: #000000" cx="-477.512" cy="-338.057" rx="39.75" ry="14.2333"/>
    <text font-size="6.77333" style="fill: #000000;text-anchor:middle;font-family:Cascadia Code Light;font-style:normal;font-weight:300" x="-477.512" y="-335.093">contrasena</text>
  </g>
  <line style="fill: none; fill-opacity:0; stroke-width: 1; stroke: #000000" x1="-561.816" y1="-397.974" x2="-525.656" y2="-397.763"/>
  <line style="fill: none; fill-opacity:0; stroke-width: 1; stroke: #000000" x1="-560.956" y1="-368.712" x2="-516.478" y2="-366.716"/>
  <line style="fill: none; fill-opacity:0; stroke-width: 1; stroke: #000000" x1="-560.096" y1="-338.158" x2="-517.766" y2="-338.106"/>
  <g>
    <ellipse style="fill: #ffffff" cx="-60.3574" cy="-633.999" rx="35.8" ry="14.2333"/>
    <ellipse style="fill: none; fill-opacity:0; stroke-width: 1; stroke: #000000" cx="-60.3574" cy="-633.999" rx="35.8" ry="14.2333"/>
    <text font-size="6.77333" style="fill: #000000;text-anchor:middle;font-family:Cascadia Code Light;font-style:normal;font-weight:300" x="-60.3574" y="-631.035">telefono</text>
  </g>
  <g>
    <ellipse style="fill: #ffffff" cx="-64.813" cy="-666.115" rx="37.775" ry="14.2333"/>
    <ellipse style="fill: none; fill-opacity:0; stroke-width: 1; stroke: #000000" cx="-64.813" cy="-666.115" rx="37.775" ry="14.2333"/>
    <text font-size="6.77333" style="fill: #000000;text-anchor:middle;font-family:Cascadia Code Light;font-style:normal;font-weight:300" x="-64.813" y="-663.151">direccion</text>
  </g>
  <g>
    <ellipse style="fill: #ffffff" cx="-210.182" cy="-530.165" rx="27.9" ry="14.2333"/>
    <ellipse style="fill: none; fill-opacity:0; stroke-width: 1; stroke: #000000" cx="-210.182" cy="-530.165" rx="27.9" ry="14.2333"/>
    <text font-size="6.77333" style="fill: #000000;text-anchor:middle;font-family:Cascadia Code Light;font-style:normal;font-weight:300" x="-210.182" y="-527.201">cuil</text>
    <line style="fill: none; fill-opacity:0; stroke-width: 1; stroke: #000000" x1="-218.082" y1="-522.165" x2="-202.282" y2="-522.165"/>
  </g>
  <g>
    <ellipse style="fill: #ffffff" cx="-211.84" cy="-560.393" rx="31.85" ry="14.2333"/>
    <ellipse style="fill: none; fill-opacity:0; stroke-width: 1; stroke: #000000" cx="-211.84" cy="-560.393" rx="31.85" ry="14.2333"/>
    <text font-size="6.77333" style="fill: #000000;text-anchor:middle;font-family:Cascadia Code Light;font-style:normal;font-weight:300" x="-211.84" y="-557.429">nombre</text>
  </g>
  <g>
    <ellipse style="fill: #ffffff" cx="-210.882" cy="-592.017" rx="35.8" ry="14.2333"/>
    <ellipse style="fill: none; fill-opacity:0; stroke-width: 1; stroke: #000000" cx="-210.882" cy="-592.017" rx="35.8" ry="14.2333"/>
    <text font-size="6.77333" style="fill: #000000;text-anchor:middle;font-family:Cascadia Code Light;font-style:normal;font-weight:300" x="-210.882" y="-589.053">apellido</text>
  </g>
  <g>
    <ellipse style="fill: #ffffff" cx="-211.559" cy="-622.519" rx="29.875" ry="14.2333"/>
    <ellipse style="fill: none; fill-opacity:0; stroke-width: 1; stroke: #000000" cx="-211.559" cy="-622.519" rx="29.875" ry="14.2333"/>
    <text font-size="6.77333" style="fill: #000000;text-anchor:middle;font-family:Cascadia Code Light;font-style:normal;font-weight:300" x="-211.559" y="-619.555">email</text>
  </g>
  <g>
    <ellipse style="fill: #ffffff" cx="-50.3514" cy="-602.531" rx="49.625" ry="14.2333"/>
    <ellipse style="fill: none; fill-opacity:0; stroke-width: 1; stroke: #000000" cx="-50.3514" cy="-602.531" rx="49.625" ry="14.2333"/>
    <text font-size="6.77333" style="fill: #000000;text-anchor:middle;font-family:Cascadia Code Light;font-style:normal;font-weight:300" x="-50.3514" y="-599.567">fechaNacimiento</text>
  </g>
  <g>
    <ellipse style="fill: #ffffff" cx="-45.9865" cy="-571.44" rx="45.675" ry="14.2333"/>
    <ellipse style="fill: none; fill-opacity:0; stroke-width: 1; stroke: #000000" cx="-45.9865" cy="-571.44" rx="45.675" ry="14.2333"/>
    <text font-size="6.77333" style="fill: #000000;text-anchor:middle;font-family:Cascadia Code Light;font-style:normal;font-weight:300" x="-45.9865" y="-568.476">nivelDeAcceso</text>
  </g>
  <g>
    <ellipse style="fill: #ffffff" cx="-58.9039" cy="-539.69" rx="33.825" ry="14.2333"/>
    <ellipse style="fill: none; fill-opacity:0; stroke-width: 1; stroke: #000000" cx="-58.9039" cy="-539.69" rx="33.825" ry="14.2333"/>
    <text font-size="6.77333" style="fill: #000000;text-anchor:middle;font-family:Cascadia Code Light;font-style:normal;font-weight:300" x="-58.9039" y="-536.727">usuario</text>
  </g>
  <g>
    <ellipse style="fill: #ffffff" cx="-71.639" cy="-506.375" rx="39.75" ry="14.2333"/>
    <ellipse style="fill: none; fill-opacity:0; stroke-width: 1; stroke: #000000" cx="-71.639" cy="-506.375" rx="39.75" ry="14.2333"/>
    <text font-size="6.77333" style="fill: #000000;text-anchor:middle;font-family:Cascadia Code Light;font-style:normal;font-weight:300" x="-71.639" y="-503.412">contrasena</text>
  </g>
  <line style="fill: none; fill-opacity:0; stroke-width: 1; stroke: #000000" x1="-182.283" y1="-530.166" x2="-160.329" y2="-530.172"/>
  <line style="fill: none; fill-opacity:0; stroke-width: 1; stroke: #000000" x1="-159.557" y1="-501.562" x2="-199.156" y2="-478.113"/>
  <line style="fill: none; fill-opacity:0; stroke-width: 1; stroke: #000000" x1="-175.081" y1="-592.018" x2="-161.416" y2="-591.88"/>
  <line style="fill: none; fill-opacity:0; stroke-width: 1; stroke: #000000" x1="-179.99" y1="-560.394" x2="-161.144" y2="-560.074"/>
  <line style="fill: none; fill-opacity:0; stroke-width: 1; stroke: #000000" x1="-111.389" y1="-506.375" x2="-160.329" y2="-514.678"/>
  <line style="fill: none; fill-opacity:0; stroke-width: 1; stroke: #000000" x1="-92.7289" y1="-539.69" x2="-161.222" y2="-546.996"/>
  <line style="fill: none; fill-opacity:0; stroke-width: 1; stroke: #000000" x1="-91.6615" y1="-571.44" x2="-161.211" y2="-575.594"/>
  <line style="fill: none; fill-opacity:0; stroke-width: 1; stroke: #000000" x1="-99.9764" y1="-602.53" x2="-161.688" y2="-602.482"/>
  <line style="fill: none; fill-opacity:0; stroke-width: 1; stroke: #000000" x1="-96.1574" y1="-634" x2="-161.144" y2="-634.286"/>
  <line style="fill: none; fill-opacity:0; stroke-width: 1; stroke: #000000" x1="-102.588" y1="-666.115" x2="-160.872" y2="-660.926"/>
  <g>
    <ellipse style="fill: #ffffff" cx="-477.056" cy="-309.034" rx="37.775" ry="14.2333"/>
    <ellipse style="fill: none; fill-opacity:0; stroke-width: 1; stroke: #000000" cx="-477.056" cy="-309.034" rx="37.775" ry="14.2333"/>
    <text font-size="6.77333" style="fill: #000000;text-anchor:middle;font-family:Cascadia Code Light;font-style:normal;font-weight:300" x="-477.056" y="-306.071">idFactura</text>
    <line style="fill: none; fill-opacity:0; stroke-width: 1; stroke: #000000" x1="-494.831" y1="-301.034" x2="-459.281" y2="-301.034"/>
  </g>
  <line style="fill: none; fill-opacity:0; stroke-width: 1; stroke: #000000" x1="-549.374" y1="-270.821" x2="-549.809" y2="-448.843"/>
  <line style="fill: none; fill-opacity:0; stroke-width: 1; stroke: #000000" x1="-181.683" y1="-622.518" x2="-160.872" y2="-622.598"/>
  <line style="fill: none; fill-opacity:0; stroke-width: 1; stroke: #000000" x1="-514.831" y1="-309.034" x2="-548.313" y2="-309.358"/>
  <line style="fill: none; fill-opacity:0; stroke-width: 1; stroke: #000000" x1="-347.726" y1="-304.806" x2="-348.156" y2="-304.806"/>
  <g>
    <rect style="fill: #ffffff" x="-576.784" y="-629.63" width="52.3" height="28.4667"/>
    <rect style="fill: none; fill-opacity:0; stroke-width: 1; stroke: #000000" x="-576.784" y="-629.63" width="52.3" height="28.4667"/>
    <text font-size="6.77333" style="fill: #000000;text-anchor:middle;font-family:monospace;font-style:normal;font-weight:normal" x="-550.634" y="-613.28">Equipo</text>
  </g>
  <g>
    <ellipse style="fill: #ffffff" cx="-491.531" cy="-649.393" rx="29.875" ry="14.2333"/>
    <ellipse style="fill: none; fill-opacity:0; stroke-width: 1; stroke: #000000" cx="-491.531" cy="-649.393" rx="29.875" ry="14.2333"/>
    <text font-size="6.77333" style="fill: #000000;text-anchor:middle;font-family:Cascadia Code Light;font-style:normal;font-weight:300" x="-491.531" y="-646.429">marca</text>
  </g>
  <g>
    <ellipse style="fill: #ffffff" cx="-468.548" cy="-681.253" rx="51.6" ry="14.2333"/>
    <ellipse style="fill: none; fill-opacity:0; stroke-width: 1; stroke: #000000" cx="-468.548" cy="-681.253" rx="51.6" ry="14.2333"/>
    <text font-size="6.77333" style="fill: #000000;text-anchor:middle;font-family:Cascadia Code Light;font-style:normal;font-weight:300" x="-468.548" y="-678.289">sistemaOperativo</text>
  </g>
  <g>
    <ellipse style="fill: #ffffff" cx="-620.653" cy="-681.673" rx="29.875" ry="14.2333"/>
    <ellipse style="fill: none; fill-opacity:0; stroke-width: 1; stroke: #000000" cx="-620.653" cy="-681.673" rx="29.875" ry="14.2333"/>
    <text font-size="6.77333" style="fill: #000000;text-anchor:middle;font-family:Cascadia Code Light;font-style:normal;font-weight:300" x="-620.653" y="-678.709">Serie</text>
  </g>
  <g>
    <ellipse style="fill: #ffffff" cx="-641.578" cy="-646.457" rx="63.45" ry="14.2333"/>
    <ellipse style="fill: none; fill-opacity:0; stroke-width: 1; stroke: #000000" cx="-641.578" cy="-646.457" rx="63.45" ry="14.2333"/>
    <text font-size="6.77333" style="fill: #000000;text-anchor:middle;font-family:Cascadia Code Light;font-style:normal;font-weight:300" x="-641.578" y="-643.493">descripcionDelProblema</text>
  </g>
  <line style="fill: none; fill-opacity:0; stroke-width: 1; stroke: #000000" x1="-550.634" y1="-629.63" x2="-550.98" y2="-721.81"/>
  <line style="fill: none; fill-opacity:0; stroke-width: 1; stroke: #000000" x1="-578.128" y1="-646.458" x2="-550.054" y2="-646.442"/>
  <line style="fill: none; fill-opacity:0; stroke-width: 1; stroke: #000000" x1="-590.778" y1="-681.672" x2="-550.438" y2="-681.618"/>
  <line style="fill: none; fill-opacity:0; stroke-width: 1; stroke: #000000" x1="-520.148" y1="-681.254" x2="-551.592" y2="-681.234"/>
  <line style="fill: none; fill-opacity:0; stroke-width: 1; stroke: #000000" x1="-521.406" y1="-649.392" x2="-550.824" y2="-649.326"/>
  <g>
    <polygon style="fill: #ffffff" points="-580.154,-539.719 -550.029,-557.794 -519.904,-539.719 -550.029,-521.644 "/>
    <polygon style="fill: none; fill-opacity:0; stroke-width: 1; stroke: #000000" points="-580.154,-539.719 -550.029,-557.794 -519.904,-539.719 -550.029,-521.644 "/>
    <text font-size="6.77333" style="fill: #000000;text-anchor:end;font-family:monospace;font-style:normal;font-weight:normal" x="-586.154" y="-545.719"></text>
    <text font-size="6.77333" style="fill: #000000;text-anchor:start;font-family:monospace;font-style:normal;font-weight:normal" x="-513.904" y="-545.719"></text>
    <text font-size="6.77333" style="fill: #000000;text-anchor:middle;font-family:monospace;font-style:normal;font-weight:normal" x="-550.029" y="-537.602">tiene</text>
  </g>
  <g>
    <polygon style="fill: #ffffff" points="-396.027,-594.492 -363.877,-613.782 -331.727,-594.492 -363.877,-575.202 "/>
    <polygon style="fill: none; fill-opacity:0; stroke-width: 1; stroke: #000000" points="-396.027,-594.492 -363.877,-613.782 -331.727,-594.492 -363.877,-575.202 "/>
    <text font-size="6.77333" style="fill: #000000;text-anchor:end;font-family:monospace;font-style:normal;font-weight:normal" x="-402.027" y="-600.492"></text>
    <text font-size="6.77333" style="fill: #000000;text-anchor:start;font-family:monospace;font-style:normal;font-weight:normal" x="-325.727" y="-600.492"></text>
    <text font-size="6.77333" style="fill: #000000;text-anchor:middle;font-family:monospace;font-style:normal;font-weight:normal" x="-363.877" y="-592.375">repara</text>
  </g>
  <line style="fill: none; fill-opacity:0; stroke-width: 1; stroke: #000000" x1="-550.634" y1="-601.164" x2="-550.03" y2="-557.794"/>
  <line style="fill: none; fill-opacity:0; stroke-width: 1; stroke: #000000" x1="-550.03" y1="-521.644" x2="-549.895" y2="-479.27"/>
  <line style="fill: none; fill-opacity:0; stroke-width: 1; stroke: #000000" x1="-160.471" y1="-661.114" x2="-161.843" y2="-498.362"/>
  <g>
    <rect style="fill: #ffffff" x="-1002.99" y="-492.363" width="67.5" height="28.4667"/>
    <rect style="fill: none; fill-opacity:0; stroke-width: 1; stroke: #000000" x="-1002.99" y="-492.363" width="67.5" height="28.4667"/>
    <text font-size="6.77333" style="fill: #000000;text-anchor:middle;font-family:Cascadia Code Light;font-style:normal;font-weight:300" x="-969.239" y="-475.166">metodoPago</text>
  </g>
  <g>
    <polygon style="fill: #ffffff" points="-805.494,-477.453 -777.594,-494.193 -749.694,-477.453 -777.594,-460.713 "/>
    <polygon style="fill: none; fill-opacity:0; stroke-width: 1; stroke: #000000" points="-805.494,-477.453 -777.594,-494.193 -749.694,-477.453 -777.594,-460.713 "/>
    <text font-size="6.77333" style="fill: #000000;text-anchor:end;font-family:Cascadia Code Light;font-style:normal;font-weight:300" x="-811.494" y="-483.453"></text>
    <text font-size="6.77333" style="fill: #000000;text-anchor:start;font-family:Cascadia Code Light;font-style:normal;font-weight:300" x="-743.694" y="-483.453"></text>
    <text font-size="6.77333" style="fill: #000000;text-anchor:middle;font-family:Cascadia Code Light;font-style:normal;font-weight:300" x="-777.594" y="-474.49">paga</text>
  </g>
  <line style="fill: none; fill-opacity:0; stroke-width: 1; stroke: #000000" x1="-934.999" y1="-477.988" x2="-805.494" y2="-477.453"/>
  <g>
    <ellipse style="fill: #ffffff" cx="-895.565" cy="-421.387" rx="39.75" ry="14.2333"/>
    <ellipse style="fill: none; fill-opacity:0; stroke-width: 1; stroke: #000000" cx="-895.565" cy="-421.387" rx="39.75" ry="14.2333"/>
    <text font-size="6.77333" style="fill: #000000;text-anchor:middle;font-family:Cascadia Code Light;font-style:normal;font-weight:300" x="-895.565" y="-418.424">tipoDePago</text>
  </g>
  <g>
    <ellipse style="fill: #ffffff" cx="-466.375" cy="-714.981" rx="53.575" ry="14.2333"/>
    <ellipse style="fill: none; fill-opacity:0; stroke-width: 1; stroke: #000000" cx="-466.375" cy="-714.981" rx="53.575" ry="14.2333"/>
    <text font-size="6.77333" style="fill: #000000;text-anchor:middle;font-family:Cascadia Code Light;font-style:normal;font-weight:300" x="-466.375" y="-712.017">tipoDeDispositivo</text>
  </g>
  <line style="fill: none; fill-opacity:0; stroke-width: 1; stroke: #000000" x1="-552.924" y1="-681.372" x2="-552.924" y2="-681.048"/>
  <line style="fill: none; fill-opacity:0; stroke-width: 1; stroke: #000000" x1="-552.276" y1="-714.992" x2="-519.95" y2="-714.982"/>
  <g>
    <ellipse style="fill: #ffffff" cx="-897.72" cy="-387.811" rx="37.775" ry="14.2333"/>
    <ellipse style="fill: none; fill-opacity:0; stroke-width: 1; stroke: #000000" cx="-897.72" cy="-387.811" rx="37.775" ry="14.2333"/>
    <text font-size="6.77333" style="fill: #000000;text-anchor:middle;font-family:Cascadia Code Light;font-style:normal;font-weight:300" x="-897.72" y="-384.848">idFactura</text>
    <line style="fill: none; fill-opacity:0; stroke-width: 1; stroke: #000000" x1="-915.495" y1="-379.811" x2="-879.945" y2="-379.811"/>
  </g>
  <g>
    <ellipse style="fill: #ffffff" cx="-895.172" cy="-350.507" rx="41.725" ry="14.2333"/>
    <ellipse style="fill: none; fill-opacity:0; stroke-width: 1; stroke: #000000" cx="-895.172" cy="-350.507" rx="41.725" ry="14.2333"/>
    <text font-size="6.77333" style="fill: #000000;text-anchor:middle;font-family:Cascadia Code Light;font-style:normal;font-weight:300" x="-895.172" y="-347.544">fechaDePago</text>
  </g>
  <g>
    <ellipse style="fill: #ffffff" cx="-1055.37" cy="-422.195" rx="35.8" ry="14.2333"/>
    <ellipse style="fill: none; fill-opacity:0; stroke-width: 1; stroke: #000000" cx="-1055.37" cy="-422.195" rx="35.8" ry="14.2333"/>
    <text font-size="6.77333" style="fill: #000000;text-anchor:middle;font-family:Cascadia Code Light;font-style:normal;font-weight:300" x="-1055.37" y="-419.232">cantidad</text>
  </g>
  <g>
    <ellipse style="fill: #ffffff" cx="-1050.01" cy="-390.753" rx="38.225" ry="14.2333"/>
    <ellipse style="fill: none; fill-opacity:0; stroke-width: 1; stroke: #000000" cx="-1050.01" cy="-390.753" rx="38.225" ry="14.2333"/>
    <text font-size="6.77333" style="fill: #000000;text-anchor:middle;font-family:monospace;font-style:normal;font-weight:normal" x="-1050.01" y="-388.637">ahoraDoce</text>
  </g>
  <g>
    <ellipse style="fill: #ffffff" cx="-1036.26" cy="-359.729" rx="31.85" ry="14.2333"/>
    <ellipse style="fill: none; fill-opacity:0; stroke-width: 1; stroke: #000000" cx="-1036.26" cy="-359.729" rx="31.85" ry="14.2333"/>
    <text font-size="6.77333" style="fill: #000000;text-anchor:middle;font-family:Cascadia Code Light;font-style:normal;font-weight:300" x="-1036.26" y="-356.766">cuotas</text>
  </g>
  <line style="fill: none; fill-opacity:0; stroke-width: 1; stroke: #000000" x1="-969.28" y1="-463.401" x2="-969.595" y2="-348.811"/>
  <line style="fill: none; fill-opacity:0; stroke-width: 1; stroke: #000000" x1="-935.804" y1="-421.762" x2="-969.907" y2="-422.079"/>
  <line style="fill: none; fill-opacity:0; stroke-width: 1; stroke: #000000" x1="-935.495" y1="-387.811" x2="-970.155" y2="-387.679"/>
  <line style="fill: none; fill-opacity:0; stroke-width: 1; stroke: #000000" x1="-938.499" y1="-349.789" x2="-969.907" y2="-350.289"/>
  <line style="fill: none; fill-opacity:0; stroke-width: 1; stroke: #000000" x1="-1004.41" y1="-359.729" x2="-969.159" y2="-359.761"/>
  <line style="fill: none; fill-opacity:0; stroke-width: 1; stroke: #000000" x1="-1011.79" y1="-390.753" x2="-968.909" y2="-390.671"/>
  <line style="fill: none; fill-opacity:0; stroke-width: 1; stroke: #000000" x1="-1021.26" y1="-424.821" x2="-969.657" y2="-424.821"/>
  <line style="fill: none; fill-opacity:0; stroke-width: 1; stroke: #000000" x1="-196.052" y1="-463.014" x2="-106.515" y2="-463.431"/>
  <line style="fill: none; fill-opacity:0; stroke-width: 1; stroke: #000000" x1="-224.881" y1="-448.647" x2="-224.152" y2="-331.53"/>
  <g>
    <ellipse style="fill: #ffffff" cx="139.651" cy="-403.991" rx="31.85" ry="14.2333"/>
    <ellipse style="fill: none; fill-opacity:0; stroke-width: 1; stroke: #000000" cx="139.651" cy="-403.991" rx="31.85" ry="14.2333"/>
    <text font-size="6.77333" style="fill: #000000;text-anchor:middle;font-family:Cascadia Code Light;font-style:normal;font-weight:300" x="139.651" y="-401.027">nombre</text>
  </g>
  <g>
    <ellipse style="fill: #ffffff" cx="30.2993" cy="-406.297" rx="39.75" ry="14.2333"/>
    <ellipse style="fill: none; fill-opacity:0; stroke-width: 1; stroke: #000000" cx="30.2993" cy="-406.297" rx="39.75" ry="14.2333"/>
    <text font-size="6.77333" style="fill: #000000;text-anchor:middle;font-family:Cascadia Code Light;font-style:normal;font-weight:300" x="30.2993" y="-403.333">idProducto</text>
    <line style="fill: none; fill-opacity:0; stroke-width: 1; stroke: #000000" x1="10.5493" y1="-398.297" x2="50.0493" y2="-398.297"/>
  </g>
  <g>
    <ellipse style="fill: #ffffff" cx="38.4925" cy="-367.855" rx="29.875" ry="14.2333"/>
    <ellipse style="fill: none; fill-opacity:0; stroke-width: 1; stroke: #000000" cx="38.4925" cy="-367.855" rx="29.875" ry="14.2333"/>
    <text font-size="6.77333" style="fill: #000000;text-anchor:middle;font-family:Cascadia Code Light;font-style:normal;font-weight:300" x="38.4925" y="-364.891">stock</text>
  </g>
  <line style="fill: none; fill-opacity:0; stroke-width: 1; stroke: #000000" x1="88.9282" y1="-450.126" x2="85.1956" y2="-367.932"/>
  <line style="fill: none; fill-opacity:0; stroke-width: 1; stroke: #000000" x1="70.0492" y1="-406.298" x2="85.1956" y2="-406.29"/>
  <line style="fill: none; fill-opacity:0; stroke-width: 1; stroke: #000000" x1="85.1956" y1="-406.08" x2="107.801" y2="-403.99"/>
  <line style="fill: none; fill-opacity:0; stroke-width: 1; stroke: #000000" x1="68.8222" y1="-368.041" x2="85.1956" y2="-368.142"/>
  <g>
    <ellipse style="fill: #ffffff" cx="-148.45" cy="-181.816" rx="35.8" ry="14.2333"/>
    <ellipse style="fill: none; fill-opacity:0; stroke-width: 1; stroke: #000000" cx="-148.45" cy="-181.816" rx="35.8" ry="14.2333"/>
    <text font-size="6.77333" style="fill: #000000;text-anchor:middle;font-family:Cascadia Code Light;font-style:normal;font-weight:300" x="-148.45" y="-178.853">material</text>
  </g>
  <g>
    <ellipse style="fill: #ffffff" cx="-148.781" cy="-148.755" rx="37.775" ry="14.2333"/>
    <ellipse style="fill: none; fill-opacity:0; stroke-width: 1; stroke: #000000" cx="-148.781" cy="-148.755" rx="37.775" ry="14.2333"/>
    <text font-size="6.77333" style="fill: #000000;text-anchor:middle;font-family:Cascadia Code Light;font-style:normal;font-weight:300" x="-148.781" y="-145.792">idFactura</text>
    <line style="fill: none; fill-opacity:0; stroke-width: 1; stroke: #000000" x1="-166.556" y1="-140.755" x2="-131.006" y2="-140.755"/>
  </g>
  <g>
    <ellipse style="fill: #ffffff" cx="-287.892" cy="-184.507" rx="39.75" ry="14.2333"/>
    <ellipse style="fill: none; fill-opacity:0; stroke-width: 1; stroke: #000000" cx="-287.892" cy="-184.507" rx="39.75" ry="14.2333"/>
    <text font-size="6.77333" style="fill: #000000;text-anchor:middle;font-family:Cascadia Code Light;font-style:normal;font-weight:300" x="-287.892" y="-181.544">nombreEnte</text>
  </g>
  <g>
    <ellipse style="fill: #ffffff" cx="-282.775" cy="-149.524" rx="29.875" ry="14.2333"/>
    <ellipse style="fill: none; fill-opacity:0; stroke-width: 1; stroke: #000000" cx="-282.775" cy="-149.524" rx="29.875" ry="14.2333"/>
    <text font-size="6.77333" style="fill: #000000;text-anchor:middle;font-family:Cascadia Code Light;font-style:normal;font-weight:300" x="-282.775" y="-146.56">marca</text>
  </g>
  <line style="fill: none; fill-opacity:0; stroke-width: 1; stroke: #000000" x1="-215.774" y1="-211.426" x2="-215.459" y2="-149.673"/>
  <line style="fill: none; fill-opacity:0; stroke-width: 1; stroke: #000000" x1="-215.774" y1="-182.594" x2="-184.25" y2="-181.816"/>
  <line style="fill: none; fill-opacity:0; stroke-width: 1; stroke: #000000" x1="-247.714" y1="-183.646" x2="-216.542" y2="-182.979"/>
  <line style="fill: none; fill-opacity:0; stroke-width: 1; stroke: #000000" x1="-252.9" y1="-149.524" x2="-214.236" y2="-149.149"/>
  <line style="fill: none; fill-opacity:0; stroke-width: 1; stroke: #000000" x1="-216.926" y1="-149.917" x2="-186.556" y2="-148.755"/>
  <g>
    <ellipse style="fill: #ffffff" cx="-637.804" cy="-722.471" rx="47.65" ry="14.2333"/>
    <ellipse style="fill: none; fill-opacity:0; stroke-width: 1; stroke: #000000" cx="-637.804" cy="-722.471" rx="47.65" ry="14.2333"/>
    <text font-size="6.77333" style="fill: #000000;text-anchor:middle;font-family:Cascadia Code Light;font-style:normal;font-weight:300" x="-637.804" y="-719.507">nroDispositivo</text>
    <line style="fill: none; fill-opacity:0; stroke-width: 1; stroke: #000000" x1="-665.454" y1="-714.471" x2="-610.154" y2="-714.471"/>
  </g>
  <line style="fill: none; fill-opacity:0; stroke-width: 1; stroke: #000000" x1="-590.154" y1="-722.471" x2="-550.316" y2="-722.454"/>
  <text font-size="12.8" style="fill: #000000;text-anchor:start;font-family:sans-serif;font-style:normal;font-weight:normal" x="-400.4" y="-486.022">
    <tspan x="-400.4" y="-486.022">1:1</tspan>
  </text>
  <text font-size="12.8" style="fill: #000000;text-anchor:start;font-family:sans-serif;font-style:normal;font-weight:normal" x="-84.0338" y="-430.084">
    <tspan x="-84.0338" y="-430.084">1:n</tspan>
  </text>
  <text font-size="12.7998" style="fill: #000000;text-anchor:start;font-family:sans-serif;font-style:normal;font-weight:normal" x="-786.712" y="-497.613">
    <tspan x="-786.712" y="-497.613">1:1</tspan>
  </text>
  <text font-size="12.7998" style="fill: #000000;text-anchor:start;font-family:sans-serif;font-style:normal;font-weight:normal" x="-510.193" y="-535.644">
    <tspan x="-510.193" y="-535.644">1:n</tspan>
  </text>
  <text font-size="12.7998" style="fill: #000000;text-anchor:start;font-family:sans-serif;font-style:normal;font-weight:normal" x="-183.926" y="-311.545">
    <tspan x="-183.926" y="-311.545">1:n</tspan>
  </text>
  <line style="fill: none; fill-opacity:0; stroke-width: 1; stroke: #000000" x1="-749.694" y1="-477.453" x2="-577.671" y2="-478.291"/>
  <polyline style="fill: none; fill-opacity:0; stroke-width: 1; stroke: #000000" points="-331.219,-594.492 -291.962,-594.492 -291.962,-477.114 -252.706,-477.114 "/>
  <polyline style="fill: none; fill-opacity:0; stroke-width: 1; stroke: #000000" points="-523.977,-615.397 -460.002,-615.397 -460.002,-594.492 -396.027,-594.492 "/>
  <g>
    <rect style="fill: #ffffff" x="-373.305" y="-637.334" width="20.55" height="14.9"/>
    <text font-size="12.7998" style="fill: #000000;text-anchor:start;font-family:sans-serif;font-style:normal;font-weight:normal" x="-373.305" y="-625.434">
      <tspan x="-373.305" y="-625.434">1:n</tspan>
    </text>
  </g>
  <g>
    <ellipse style="fill: #ffffff" cx="-217.59" cy="-664.233" rx="39.75" ry="14.2333"/>
    <ellipse style="fill: none; fill-opacity:0; stroke-width: 1; stroke: #000000" cx="-217.59" cy="-664.233" rx="39.75" ry="14.2333"/>
    <text font-size="6.77333" style="fill: #000000;text-anchor:middle;font-family:Cascadia Code Light;font-style:normal;font-weight:300" x="-217.59" y="-661.27">antiguedad</text>
  </g>
  <line style="fill: none; fill-opacity:0; stroke-width: 1; stroke: #000000" x1="-177.84" y1="-664.233" x2="-159.406" y2="-660.435"/>
</svg>
