<?xml version="1.0" encoding="UTF-8" standalone="no"?>
<!DOCTYPE svg PUBLIC "-//W3C//DTD SVG 1.0//EN" "http://www.w3.org/TR/2001/PR-SVG-20010719/DTD/svg10.dtd">
<svg width="67cm" height="42cm" viewBox="-1092 -881 1331 828" xmlns="http://www.w3.org/2000/svg" xmlns:xlink="http://www.w3.org/1999/xlink">
  <g>
    <rect style="fill: #ffffff" x="-577.671" y="-478.291" width="55.65" height="28.4667"/>
    <rect style="fill: none; fill-opacity:0; stroke-width: 2; stroke: #000000" x="-577.671" y="-478.291" width="55.65" height="28.4667"/>
    <text font-size="6.77333" style="fill: #000000;text-anchor:middle;font-family:Cascadia Code Light;font-style:normal;font-weight:300" x="-549.846" y="-461.094">Cliente</text>
  </g>
  <g>
    <polygon style="fill: #ffffff" points="-426.588,-463.378 -390.788,-484.858 -354.988,-463.378 -390.788,-441.898 "/>
    <polygon style="fill: none; fill-opacity:0; stroke-width: 2; stroke: #000000" points="-426.588,-463.378 -390.788,-484.858 -354.988,-463.378 -390.788,-441.898 "/>
    <text font-size="6.77333" style="fill: #000000;text-anchor:end;font-family:Cascadia Code Light;font-style:normal;font-weight:300" x="-432.588" y="-469.378"></text>
    <text font-size="6.77333" style="fill: #000000;text-anchor:start;font-family:Cascadia Code Light;font-style:normal;font-weight:300" x="-348.988" y="-469.378"></text>
    <text font-size="6.77333" style="fill: #000000;text-anchor:middle;font-family:Cascadia Code Light;font-style:normal;font-weight:300" x="-390.788" y="-460.415">Consulta</text>
  </g>
  <g>
    <rect style="fill: #ffffff" x="-252.706" y="-477.114" width="55.65" height="28.4667"/>
    <rect style="fill: none; fill-opacity:0; stroke-width: 2; stroke: #000000" x="-252.706" y="-477.114" width="55.65" height="28.4667"/>
    <text font-size="6.77333" style="fill: #000000;text-anchor:middle;font-family:Cascadia Code Light;font-style:normal;font-weight:300" x="-224.881" y="-459.917">Tecnico</text>
  </g>
  <g>
    <rect style="fill: #ffffff" x="-256.581" y="-239.515" width="63.55" height="28.4667"/>
    <rect style="fill: none; fill-opacity:0; stroke-width: 2; stroke: #000000" x="-256.581" y="-239.515" width="63.55" height="28.4667"/>
    <text font-size="6.77333" style="fill: #000000;text-anchor:middle;font-family:Cascadia Code Light;font-style:normal;font-weight:300" x="-224.806" y="-222.319">Proveedor</text>
  </g>
  <g>
    <rect style="fill: #ffffff" x="57.1532" y="-478.592" width="63.55" height="28.4667"/>
    <rect style="fill: none; fill-opacity:0; stroke-width: 2; stroke: #000000" x="57.1532" y="-478.592" width="63.55" height="28.4667"/>
    <text font-size="6.77333" style="fill: #000000;text-anchor:middle;font-family:Cascadia Code Light;font-style:normal;font-weight:300" x="88.9282" y="-461.396">productos</text>
  </g>
  <g>
    <polygon style="fill: #ffffff" points="-256.002,-312.42 -224.152,-331.53 -192.302,-312.42 -224.152,-293.31 "/>
    <polygon style="fill: none; fill-opacity:0; stroke-width: 2; stroke: #000000" points="-256.002,-312.42 -224.152,-331.53 -192.302,-312.42 -224.152,-293.31 "/>
    <text font-size="6.77333" style="fill: #000000;text-anchor:end;font-family:Cascadia Code Light;font-style:normal;font-weight:300" x="-262.002" y="-318.42"></text>
    <text font-size="6.77333" style="fill: #000000;text-anchor:start;font-family:Cascadia Code Light;font-style:normal;font-weight:300" x="-186.302" y="-318.42"></text>
    <text font-size="6.77333" style="fill: #000000;text-anchor:middle;font-family:Cascadia Code Light;font-style:normal;font-weight:300" x="-224.152" y="-309.457">compra</text>
  </g>
  <g>
    <polygon style="fill: #ffffff" points="-105.521,-463.575 -75.6464,-481.5 -45.7714,-463.575 -75.6464,-445.65 "/>
    <polygon style="fill: none; fill-opacity:0; stroke-width: 2; stroke: #000000" points="-105.521,-463.575 -75.6464,-481.5 -45.7714,-463.575 -75.6464,-445.65 "/>
    <text font-size="6.77333" style="fill: #000000;text-anchor:end;font-family:Cascadia Code Light;font-style:normal;font-weight:300" x="-111.521" y="-469.575"></text>
    <text font-size="6.77333" style="fill: #000000;text-anchor:start;font-family:Cascadia Code Light;font-style:normal;font-weight:300" x="-39.7714" y="-469.575"></text>
    <text font-size="6.77333" style="fill: #000000;text-anchor:middle;font-family:Cascadia Code Light;font-style:normal;font-weight:300" x="-75.6464" y="-460.612">Tiene</text>
  </g>
  <line style="fill: none; fill-opacity:0; stroke-width: 1; stroke: #000000" x1="-426.588" y1="-463.378" x2="-521.048" y2="-463.899"/>
  <g>
    <ellipse style="fill: #ffffff" cx="-618.335" cy="-431.59" rx="35.8" ry="14.2333"/>
    <ellipse style="fill: none; fill-opacity:0; stroke-width: 1; stroke: #000000" cx="-618.335" cy="-431.59" rx="35.8" ry="14.2333"/>
    <ellipse style="fill: none; fill-opacity:0; stroke-width: 1; stroke: #000000" cx="-618.335" cy="-431.59" rx="27.8" ry="10.2333"/>
    <text font-size="6.77333" style="fill: #000000;text-anchor:middle;font-family:Cascadia Code Light;font-style:normal;font-weight:300" x="-618.335" y="-428.627">telefono</text>
  </g>
  <line style="fill: none; fill-opacity:0; stroke-width: 1; stroke: #000000" x1="-354.988" y1="-463.378" x2="-252.706" y2="-462.88"/>
  <line style="fill: none; fill-opacity:0; stroke-width: 1; stroke: #000000" x1="57.1532" y1="-464.359" x2="-45.7714" y2="-463.574"/>
  <line style="fill: none; fill-opacity:0; stroke-width: 1; stroke: #000000" x1="-224.806" y1="-239.515" x2="-224.332" y2="-292.325"/>
  <line style="fill: none; fill-opacity:0; stroke-width: 1; stroke: #000000" x1="-582.535" y1="-431.59" x2="-550.081" y2="-428.859"/>
  <g>
    <ellipse style="fill: #ffffff" cx="-547.703" cy="-255.32" rx="37.775" ry="14.2333"/>
    <ellipse style="fill: none; fill-opacity:0; stroke-width: 1; stroke: #000000" cx="-547.703" cy="-255.32" rx="37.775" ry="14.2333"/>
    <ellipse style="fill: none; fill-opacity:0; stroke-width: 1; stroke: #000000" cx="-547.703" cy="-255.32" rx="29.775" ry="10.2333"/>
    <text font-size="6.77333" style="fill: #000000;text-anchor:middle;font-family:Cascadia Code Light;font-style:normal;font-weight:300" x="-547.703" y="-252.356">direccion</text>
  </g>
  <g>
    <ellipse style="fill: #ffffff" cx="-614.107" cy="-361.856" rx="25.925" ry="14.2333"/>
    <ellipse style="fill: none; fill-opacity:0; stroke-width: 1; stroke: #000000" cx="-614.107" cy="-361.856" rx="25.925" ry="14.2333"/>
    <text font-size="6.77333" style="fill: #000000;text-anchor:middle;font-family:Cascadia Code Light;font-style:normal;font-weight:300" x="-614.107" y="-358.892">dni</text>
  </g>
  <g>
    <ellipse style="fill: #ffffff" cx="-724.904" cy="-327.035" rx="41.725" ry="14.2333"/>
    <ellipse style="fill: none; fill-opacity:0; stroke-width: 1; stroke: #000000" cx="-724.904" cy="-327.035" rx="41.725" ry="14.2333"/>
    <text font-size="6.77333" style="fill: #000000;text-anchor:middle;font-family:Cascadia Code Light;font-style:normal;font-weight:300" x="-724.904" y="-324.072">nombre_pila</text>
  </g>
  <line style="fill: none; fill-opacity:0; stroke-width: 1; stroke: #000000" x1="-548.604" y1="-370.83" x2="-588.182" y2="-361.856"/>
  <line style="fill: none; fill-opacity:0; stroke-width: 1; stroke: #000000" x1="-657.193" y1="-323.027" x2="-683.179" y2="-327.035"/>
  <g>
    <ellipse style="fill: #ffffff" cx="-725.663" cy="-294.89" rx="35.8" ry="14.2333"/>
    <ellipse style="fill: none; fill-opacity:0; stroke-width: 1; stroke: #000000" cx="-725.663" cy="-294.89" rx="35.8" ry="14.2333"/>
    <text font-size="6.77333" style="fill: #000000;text-anchor:middle;font-family:Cascadia Code Light;font-style:normal;font-weight:300" x="-725.663" y="-291.927">apellido</text>
  </g>
  <g>
    <ellipse style="fill: #ffffff" cx="-614.919" cy="-398.159" rx="29.875" ry="14.2333"/>
    <ellipse style="fill: none; fill-opacity:0; stroke-width: 1; stroke: #000000" cx="-614.919" cy="-398.159" rx="29.875" ry="14.2333"/>
    <text font-size="6.77333" style="fill: #000000;text-anchor:middle;font-family:Cascadia Code Light;font-style:normal;font-weight:300" x="-614.919" y="-395.195">email</text>
  </g>
  <line style="fill: none; fill-opacity:0; stroke-width: 1; stroke: #000000" x1="-649.351" y1="-306.457" x2="-689.863" y2="-294.89"/>
  <line style="fill: none; fill-opacity:0; stroke-width: 1; stroke: #000000" x1="-549.793" y1="-395.803" x2="-585.044" y2="-398.159"/>
  <g>
    <ellipse style="fill: #ffffff" cx="-474.39" cy="-410.77" rx="49.625" ry="14.2333"/>
    <ellipse style="fill: none; fill-opacity:0; stroke-width: 1; stroke: #000000" cx="-474.39" cy="-410.77" rx="49.625" ry="14.2333"/>
    <text font-size="6.77333" style="fill: #000000;text-anchor:middle;font-family:Cascadia Code Light;font-style:normal;font-weight:300" x="-474.39" y="-407.806">fechaNacimiento</text>
  </g>
  <line style="fill: none; fill-opacity:0; stroke-width: 1; stroke: #000000" x1="-513.482" y1="-419.808" x2="-550.133" y2="-428.281"/>
  <g>
    <ellipse style="fill: #ffffff" cx="-364.575" cy="-398.749" rx="45.675" ry="14.2333"/>
    <ellipse style="fill: none; fill-opacity:0; stroke-width: 1; stroke: #000000" cx="-364.575" cy="-398.749" rx="45.675" ry="14.2333"/>
    <text font-size="6.77333" style="fill: #000000;text-anchor:middle;font-family:Cascadia Code Light;font-style:normal;font-weight:300" x="-364.575" y="-395.786">nivelDeAcceso</text>
  </g>
  <g>
    <ellipse style="fill: #ffffff" cx="-376.247" cy="-364.203" rx="33.825" ry="14.2333"/>
    <ellipse style="fill: none; fill-opacity:0; stroke-width: 1; stroke: #000000" cx="-376.247" cy="-364.203" rx="33.825" ry="14.2333"/>
    <text font-size="6.77333" style="fill: #000000;text-anchor:middle;font-family:Cascadia Code Light;font-style:normal;font-weight:300" x="-376.247" y="-361.24">usuario</text>
  </g>
  <g>
    <ellipse style="fill: #ffffff" cx="-380.606" cy="-330.043" rx="39.75" ry="14.2333"/>
    <ellipse style="fill: none; fill-opacity:0; stroke-width: 1; stroke: #000000" cx="-380.606" cy="-330.043" rx="39.75" ry="14.2333"/>
    <text font-size="6.77333" style="fill: #000000;text-anchor:middle;font-family:Cascadia Code Light;font-style:normal;font-weight:300" x="-380.606" y="-327.08">contrasena</text>
  </g>
  <line style="fill: none; fill-opacity:0; stroke-width: 1; stroke: #000000" x1="-460.248" y1="-378.255" x2="-410.25" y2="-398.749"/>
  <line style="fill: none; fill-opacity:0; stroke-width: 1; stroke: #000000" x1="-453.259" y1="-366.904" x2="-410.072" y2="-364.203"/>
  <line style="fill: none; fill-opacity:0; stroke-width: 1; stroke: #000000" x1="-459.458" y1="-359.776" x2="-408.424" y2="-340.533"/>
  <g>
    <ellipse style="fill: #ffffff" cx="-22.0969" cy="-633.158" rx="35.8" ry="14.2333"/>
    <ellipse style="fill: none; fill-opacity:0; stroke-width: 1; stroke: #000000" cx="-22.0969" cy="-633.158" rx="35.8" ry="14.2333"/>
    <ellipse style="fill: none; fill-opacity:0; stroke-width: 1; stroke: #000000" cx="-22.0969" cy="-633.158" rx="27.8" ry="10.2333"/>
    <text font-size="6.77333" style="fill: #000000;text-anchor:middle;font-family:Cascadia Code Light;font-style:normal;font-weight:300" x="-22.0969" y="-630.194">telefono</text>
  </g>
  <g>
    <ellipse style="fill: #ffffff" cx="-31.5978" cy="-685.455" rx="37.775" ry="14.2333"/>
    <ellipse style="fill: none; fill-opacity:0; stroke-width: 1; stroke: #000000" cx="-31.5978" cy="-685.455" rx="37.775" ry="14.2333"/>
    <ellipse style="fill: none; fill-opacity:0; stroke-width: 1; stroke: #000000" cx="-31.5978" cy="-685.455" rx="29.775" ry="10.2333"/>
    <text font-size="6.77333" style="fill: #000000;text-anchor:middle;font-family:Cascadia Code Light;font-style:normal;font-weight:300" x="-31.5978" y="-682.492">direccion</text>
  </g>
  <g>
    <ellipse style="fill: #ffffff" cx="-210.182" cy="-530.165" rx="27.9" ry="14.2333"/>
    <ellipse style="fill: none; fill-opacity:0; stroke-width: 1; stroke: #000000" cx="-210.182" cy="-530.165" rx="27.9" ry="14.2333"/>
    <text font-size="6.77333" style="fill: #000000;text-anchor:middle;font-family:Cascadia Code Light;font-style:normal;font-weight:300" x="-210.182" y="-527.201">cuil</text>
    <line style="fill: none; fill-opacity:0; stroke-width: 1; stroke: #000000" x1="-218.082" y1="-522.165" x2="-202.282" y2="-522.165"/>
  </g>
  <g>
    <ellipse style="fill: #ffffff" cx="-252.309" cy="-788.466" rx="31.85" ry="14.2333"/>
    <ellipse style="fill: none; fill-opacity:0; stroke-width: 1; stroke: #000000" cx="-252.309" cy="-788.466" rx="31.85" ry="14.2333"/>
    <text font-size="6.77333" style="fill: #000000;text-anchor:middle;font-family:Cascadia Code Light;font-style:normal;font-weight:300" x="-252.309" y="-785.503">nombre</text>
  </g>
  <g>
    <ellipse style="fill: #ffffff" cx="-260.494" cy="-756.411" rx="35.8" ry="14.2333"/>
    <ellipse style="fill: none; fill-opacity:0; stroke-width: 1; stroke: #000000" cx="-260.494" cy="-756.411" rx="35.8" ry="14.2333"/>
    <text font-size="6.77333" style="fill: #000000;text-anchor:middle;font-family:Cascadia Code Light;font-style:normal;font-weight:300" x="-260.494" y="-753.447">apellido</text>
  </g>
  <g>
    <ellipse style="fill: #ffffff" cx="-211.559" cy="-622.519" rx="29.875" ry="14.2333"/>
    <ellipse style="fill: none; fill-opacity:0; stroke-width: 1; stroke: #000000" cx="-211.559" cy="-622.519" rx="29.875" ry="14.2333"/>
    <text font-size="6.77333" style="fill: #000000;text-anchor:middle;font-family:Cascadia Code Light;font-style:normal;font-weight:300" x="-211.559" y="-619.555">email</text>
  </g>
  <g>
    <ellipse style="fill: #ffffff" cx="-82.8167" cy="-596.11" rx="49.625" ry="14.2333"/>
    <ellipse style="fill: none; fill-opacity:0; stroke-width: 1; stroke: #000000" cx="-82.8167" cy="-596.11" rx="49.625" ry="14.2333"/>
    <text font-size="6.77333" style="fill: #000000;text-anchor:middle;font-family:Cascadia Code Light;font-style:normal;font-weight:300" x="-82.8167" y="-593.147">fechaNacimiento</text>
  </g>
  <g>
    <ellipse style="fill: #ffffff" cx="23.0759" cy="-578.708" rx="45.675" ry="14.2333"/>
    <ellipse style="fill: none; fill-opacity:0; stroke-width: 1; stroke: #000000" cx="23.0759" cy="-578.708" rx="45.675" ry="14.2333"/>
    <text font-size="6.77333" style="fill: #000000;text-anchor:middle;font-family:Cascadia Code Light;font-style:normal;font-weight:300" x="23.0759" y="-575.745">nivelDeAcceso</text>
  </g>
  <g>
    <ellipse style="fill: #ffffff" cx="11.3894" cy="-538.743" rx="33.825" ry="14.2333"/>
    <ellipse style="fill: none; fill-opacity:0; stroke-width: 1; stroke: #000000" cx="11.3894" cy="-538.743" rx="33.825" ry="14.2333"/>
    <text font-size="6.77333" style="fill: #000000;text-anchor:middle;font-family:Cascadia Code Light;font-style:normal;font-weight:300" x="11.3894" y="-535.779">usuario</text>
  </g>
  <g>
    <ellipse style="fill: #ffffff" cx="16.5402" cy="-506.496" rx="39.75" ry="14.2333"/>
    <ellipse style="fill: none; fill-opacity:0; stroke-width: 1; stroke: #000000" cx="16.5402" cy="-506.496" rx="39.75" ry="14.2333"/>
    <text font-size="6.77333" style="fill: #000000;text-anchor:middle;font-family:Cascadia Code Light;font-style:normal;font-weight:300" x="16.5402" y="-503.533">contrasena</text>
  </g>
  <line style="fill: none; fill-opacity:0; stroke-width: 1; stroke: #000000" x1="-182.283" y1="-530.166" x2="-160.329" y2="-530.172"/>
  <line style="fill: none; fill-opacity:0; stroke-width: 1; stroke: #000000" x1="-159.557" y1="-501.562" x2="-199.156" y2="-478.113"/>
  <line style="fill: none; fill-opacity:0; stroke-width: 1; stroke: #000000" x1="-23.2098" y1="-506.496" x2="-64.7136" y2="-538.828"/>
  <line style="fill: none; fill-opacity:0; stroke-width: 1; stroke: #000000" x1="-22.4356" y1="-538.743" x2="-50.8156" y2="-551.274"/>
  <line style="fill: none; fill-opacity:0; stroke-width: 1; stroke: #000000" x1="-22.5991" y1="-578.708" x2="-59.0765" y2="-561.481"/>
  <line style="fill: none; fill-opacity:0; stroke-width: 1; stroke: #000000" x1="-132.442" y1="-596.11" x2="-161.688" y2="-602.482"/>
  <line style="fill: none; fill-opacity:0; stroke-width: 1; stroke: #000000" x1="-57.8969" y1="-633.158" x2="-161.144" y2="-634.286"/>
  <line style="fill: none; fill-opacity:0; stroke-width: 1; stroke: #000000" x1="-69.3728" y1="-685.455" x2="-160.872" y2="-660.926"/>
  <g>
    <ellipse style="fill: #ffffff" cx="-476.556" cy="-294.035" rx="37.775" ry="14.2333"/>
    <ellipse style="fill: none; fill-opacity:0; stroke-width: 1; stroke: #000000" cx="-476.556" cy="-294.035" rx="37.775" ry="14.2333"/>
    <text font-size="6.77333" style="fill: #000000;text-anchor:middle;font-family:Cascadia Code Light;font-style:normal;font-weight:300" x="-476.556" y="-291.071">idFactura</text>
    <line style="fill: none; fill-opacity:0; stroke-width: 1; stroke: #000000" x1="-494.331" y1="-286.035" x2="-458.781" y2="-286.035"/>
  </g>
  <line style="fill: none; fill-opacity:0; stroke-width: 1; stroke: #000000" x1="-547.854" y1="-270.054" x2="-549.69" y2="-448.846"/>
  <line style="fill: none; fill-opacity:0; stroke-width: 1; stroke: #000000" x1="-181.683" y1="-622.518" x2="-160.872" y2="-622.598"/>
  <line style="fill: none; fill-opacity:0; stroke-width: 1; stroke: #000000" x1="-514.331" y1="-294.035" x2="-549.496" y2="-307.505"/>
  <line style="fill: none; fill-opacity:0; stroke-width: 1; stroke: #000000" x1="-347.726" y1="-304.806" x2="-348.156" y2="-304.806"/>
  <g>
    <rect style="fill: #ffffff" x="-576.784" y="-629.63" width="52.3" height="28.4667"/>
    <rect style="fill: none; fill-opacity:0; stroke-width: 1; stroke: #000000" x="-576.784" y="-629.63" width="52.3" height="28.4667"/>
    <text font-size="6.77333" style="fill: #000000;text-anchor:middle;font-family:monospace;font-style:normal;font-weight:normal" x="-550.634" y="-613.28">Equipo</text>
  </g>
  <g>
    <ellipse style="fill: #ffffff" cx="-491.531" cy="-649.393" rx="29.875" ry="14.2333"/>
    <ellipse style="fill: none; fill-opacity:0; stroke-width: 1; stroke: #000000" cx="-491.531" cy="-649.393" rx="29.875" ry="14.2333"/>
    <text font-size="6.77333" style="fill: #000000;text-anchor:middle;font-family:Cascadia Code Light;font-style:normal;font-weight:300" x="-491.531" y="-646.429">marca</text>
  </g>
  <g>
    <ellipse style="fill: #ffffff" cx="-468.548" cy="-681.253" rx="51.6" ry="14.2333"/>
    <ellipse style="fill: none; fill-opacity:0; stroke-width: 1; stroke: #000000" cx="-468.548" cy="-681.253" rx="51.6" ry="14.2333"/>
    <text font-size="6.77333" style="fill: #000000;text-anchor:middle;font-family:Cascadia Code Light;font-style:normal;font-weight:300" x="-468.548" y="-678.289">sistemaOperativo</text>
  </g>
  <g>
    <ellipse style="fill: #ffffff" cx="-620.653" cy="-681.673" rx="29.875" ry="14.2333"/>
    <ellipse style="fill: none; fill-opacity:0; stroke-width: 1; stroke: #000000" cx="-620.653" cy="-681.673" rx="29.875" ry="14.2333"/>
    <text font-size="6.77333" style="fill: #000000;text-anchor:middle;font-family:Cascadia Code Light;font-style:normal;font-weight:300" x="-620.653" y="-678.709">Serie</text>
  </g>
  <g>
    <ellipse style="fill: #ffffff" cx="-641.578" cy="-646.457" rx="63.45" ry="14.2333"/>
    <ellipse style="fill: none; fill-opacity:0; stroke-width: 1; stroke: #000000" cx="-641.578" cy="-646.457" rx="63.45" ry="14.2333"/>
    <text font-size="6.77333" style="fill: #000000;text-anchor:middle;font-family:Cascadia Code Light;font-style:normal;font-weight:300" x="-641.578" y="-643.493">descripcionDelProblema</text>
  </g>
  <line style="fill: none; fill-opacity:0; stroke-width: 1; stroke: #000000" x1="-550.634" y1="-629.63" x2="-550.98" y2="-721.81"/>
  <line style="fill: none; fill-opacity:0; stroke-width: 1; stroke: #000000" x1="-578.128" y1="-646.458" x2="-550.054" y2="-646.442"/>
  <line style="fill: none; fill-opacity:0; stroke-width: 1; stroke: #000000" x1="-590.778" y1="-681.672" x2="-550.438" y2="-681.618"/>
  <line style="fill: none; fill-opacity:0; stroke-width: 1; stroke: #000000" x1="-520.148" y1="-681.254" x2="-551.592" y2="-681.234"/>
  <line style="fill: none; fill-opacity:0; stroke-width: 1; stroke: #000000" x1="-521.406" y1="-649.392" x2="-550.824" y2="-649.326"/>
  <g>
    <polygon style="fill: #ffffff" points="-580.154,-539.719 -550.029,-557.794 -519.904,-539.719 -550.029,-521.644 "/>
    <polygon style="fill: none; fill-opacity:0; stroke-width: 1; stroke: #000000" points="-580.154,-539.719 -550.029,-557.794 -519.904,-539.719 -550.029,-521.644 "/>
    <text font-size="6.77333" style="fill: #000000;text-anchor:end;font-family:monospace;font-style:normal;font-weight:normal" x="-586.154" y="-545.719"></text>
    <text font-size="6.77333" style="fill: #000000;text-anchor:start;font-family:monospace;font-style:normal;font-weight:normal" x="-513.904" y="-545.719"></text>
    <text font-size="6.77333" style="fill: #000000;text-anchor:middle;font-family:monospace;font-style:normal;font-weight:normal" x="-550.029" y="-537.602">tiene</text>
  </g>
  <g>
    <polygon style="fill: #ffffff" points="-395.027,-600.992 -362.877,-620.282 -330.727,-600.992 -362.877,-581.702 "/>
    <polygon style="fill: none; fill-opacity:0; stroke-width: 1; stroke: #000000" points="-395.027,-600.992 -362.877,-620.282 -330.727,-600.992 -362.877,-581.702 "/>
    <text font-size="6.77333" style="fill: #000000;text-anchor:end;font-family:monospace;font-style:normal;font-weight:normal" x="-401.027" y="-606.992"></text>
    <text font-size="6.77333" style="fill: #000000;text-anchor:start;font-family:monospace;font-style:normal;font-weight:normal" x="-324.727" y="-606.992"></text>
    <text font-size="6.77333" style="fill: #000000;text-anchor:middle;font-family:monospace;font-style:normal;font-weight:normal" x="-362.877" y="-598.875">repara</text>
  </g>
  <line style="fill: none; fill-opacity:0; stroke-width: 1; stroke: #000000" x1="-550.634" y1="-601.164" x2="-550.03" y2="-557.794"/>
  <line style="fill: none; fill-opacity:0; stroke-width: 1; stroke: #000000" x1="-550.03" y1="-521.644" x2="-549.895" y2="-479.27"/>
  <line style="fill: none; fill-opacity:0; stroke-width: 1; stroke: #000000" x1="-159.877" y1="-660.817" x2="-161.248" y2="-498.065"/>
  <g>
    <rect style="fill: #ffffff" x="-1002.99" y="-492.363" width="67.5" height="28.4667"/>
    <rect style="fill: none; fill-opacity:0; stroke-width: 1; stroke: #000000" x="-1002.99" y="-492.363" width="67.5" height="28.4667"/>
    <text font-size="6.77333" style="fill: #000000;text-anchor:middle;font-family:Cascadia Code Light;font-style:normal;font-weight:300" x="-969.239" y="-475.166">metodoPago</text>
  </g>
  <g>
    <polygon style="fill: #ffffff" points="-805.494,-477.453 -777.594,-494.193 -749.694,-477.453 -777.594,-460.713 "/>
    <polygon style="fill: none; fill-opacity:0; stroke-width: 1; stroke: #000000" points="-805.494,-477.453 -777.594,-494.193 -749.694,-477.453 -777.594,-460.713 "/>
    <text font-size="6.77333" style="fill: #000000;text-anchor:end;font-family:Cascadia Code Light;font-style:normal;font-weight:300" x="-811.494" y="-483.453"></text>
    <text font-size="6.77333" style="fill: #000000;text-anchor:start;font-family:Cascadia Code Light;font-style:normal;font-weight:300" x="-743.694" y="-483.453"></text>
    <text font-size="6.77333" style="fill: #000000;text-anchor:middle;font-family:Cascadia Code Light;font-style:normal;font-weight:300" x="-777.594" y="-474.49">paga</text>
  </g>
  <line style="fill: none; fill-opacity:0; stroke-width: 1; stroke: #000000" x1="-934.999" y1="-477.988" x2="-805.494" y2="-477.453"/>
  <g>
    <ellipse style="fill: #ffffff" cx="-895.565" cy="-421.387" rx="39.75" ry="14.2333"/>
    <ellipse style="fill: none; fill-opacity:0; stroke-width: 1; stroke: #000000" cx="-895.565" cy="-421.387" rx="39.75" ry="14.2333"/>
    <text font-size="6.77333" style="fill: #000000;text-anchor:middle;font-family:Cascadia Code Light;font-style:normal;font-weight:300" x="-895.565" y="-418.424">tipoDePago</text>
  </g>
  <g>
    <ellipse style="fill: #ffffff" cx="-466.375" cy="-714.981" rx="53.575" ry="14.2333"/>
    <ellipse style="fill: none; fill-opacity:0; stroke-width: 1; stroke: #000000" cx="-466.375" cy="-714.981" rx="53.575" ry="14.2333"/>
    <text font-size="6.77333" style="fill: #000000;text-anchor:middle;font-family:Cascadia Code Light;font-style:normal;font-weight:300" x="-466.375" y="-712.017">tipoDeDispositivo</text>
  </g>
  <line style="fill: none; fill-opacity:0; stroke-width: 1; stroke: #000000" x1="-552.924" y1="-681.372" x2="-552.924" y2="-681.048"/>
  <line style="fill: none; fill-opacity:0; stroke-width: 1; stroke: #000000" x1="-552.276" y1="-714.992" x2="-519.95" y2="-714.982"/>
  <g>
    <ellipse style="fill: #ffffff" cx="-897.72" cy="-387.811" rx="37.775" ry="14.2333"/>
    <ellipse style="fill: none; fill-opacity:0; stroke-width: 1; stroke: #000000" cx="-897.72" cy="-387.811" rx="37.775" ry="14.2333"/>
    <text font-size="6.77333" style="fill: #000000;text-anchor:middle;font-family:Cascadia Code Light;font-style:normal;font-weight:300" x="-897.72" y="-384.848">idFactura</text>
    <line style="fill: none; fill-opacity:0; stroke-width: 1; stroke: #000000" x1="-915.495" y1="-379.811" x2="-879.945" y2="-379.811"/>
  </g>
  <g>
    <ellipse style="fill: #ffffff" cx="-895.172" cy="-350.507" rx="41.725" ry="14.2333"/>
    <ellipse style="fill: none; fill-opacity:0; stroke-width: 1; stroke: #000000" cx="-895.172" cy="-350.507" rx="41.725" ry="14.2333"/>
    <text font-size="6.77333" style="fill: #000000;text-anchor:middle;font-family:Cascadia Code Light;font-style:normal;font-weight:300" x="-895.172" y="-347.544">fechaDePago</text>
  </g>
  <g>
    <ellipse style="fill: #ffffff" cx="-1055.37" cy="-422.195" rx="35.8" ry="14.2333"/>
    <ellipse style="fill: none; fill-opacity:0; stroke-width: 1; stroke: #000000" cx="-1055.37" cy="-422.195" rx="35.8" ry="14.2333"/>
    <text font-size="6.77333" style="fill: #000000;text-anchor:middle;font-family:Cascadia Code Light;font-style:normal;font-weight:300" x="-1055.37" y="-419.232">cantidad</text>
  </g>
  <g>
    <ellipse style="fill: #ffffff" cx="-1050.01" cy="-390.753" rx="38.225" ry="14.2333"/>
    <ellipse style="fill: none; fill-opacity:0; stroke-width: 1; stroke: #000000" cx="-1050.01" cy="-390.753" rx="38.225" ry="14.2333"/>
    <text font-size="6.77333" style="fill: #000000;text-anchor:middle;font-family:monospace;font-style:normal;font-weight:normal" x="-1050.01" y="-388.637">ahoraDoce</text>
  </g>
  <g>
    <ellipse style="fill: #ffffff" cx="-1036.26" cy="-359.729" rx="31.85" ry="14.2333"/>
    <ellipse style="fill: none; fill-opacity:0; stroke-width: 1; stroke: #000000" cx="-1036.26" cy="-359.729" rx="31.85" ry="14.2333"/>
    <text font-size="6.77333" style="fill: #000000;text-anchor:middle;font-family:Cascadia Code Light;font-style:normal;font-weight:300" x="-1036.26" y="-356.766">cuotas</text>
  </g>
  <line style="fill: none; fill-opacity:0; stroke-width: 1; stroke: #000000" x1="-969.28" y1="-463.401" x2="-969.595" y2="-348.811"/>
  <line style="fill: none; fill-opacity:0; stroke-width: 1; stroke: #000000" x1="-935.804" y1="-421.762" x2="-969.907" y2="-422.079"/>
  <line style="fill: none; fill-opacity:0; stroke-width: 1; stroke: #000000" x1="-935.495" y1="-387.811" x2="-970.155" y2="-387.679"/>
  <line style="fill: none; fill-opacity:0; stroke-width: 1; stroke: #000000" x1="-938.499" y1="-349.789" x2="-969.907" y2="-350.289"/>
  <line style="fill: none; fill-opacity:0; stroke-width: 1; stroke: #000000" x1="-1004.41" y1="-359.729" x2="-969.159" y2="-359.761"/>
  <line style="fill: none; fill-opacity:0; stroke-width: 1; stroke: #000000" x1="-1011.79" y1="-390.753" x2="-968.909" y2="-390.671"/>
  <line style="fill: none; fill-opacity:0; stroke-width: 1; stroke: #000000" x1="-1021.26" y1="-424.821" x2="-969.657" y2="-424.821"/>
  <line style="fill: none; fill-opacity:0; stroke-width: 1; stroke: #000000" x1="-196.052" y1="-463.014" x2="-106.515" y2="-463.431"/>
  <line style="fill: none; fill-opacity:0; stroke-width: 1; stroke: #000000" x1="-224.881" y1="-448.647" x2="-224.152" y2="-331.53"/>
  <g>
    <ellipse style="fill: #ffffff" cx="149.741" cy="-406.513" rx="31.85" ry="14.2333"/>
    <ellipse style="fill: none; fill-opacity:0; stroke-width: 1; stroke: #000000" cx="149.741" cy="-406.513" rx="31.85" ry="14.2333"/>
    <text font-size="6.77333" style="fill: #000000;text-anchor:middle;font-family:Cascadia Code Light;font-style:normal;font-weight:300" x="149.741" y="-403.55">nombre</text>
  </g>
  <g>
    <ellipse style="fill: #ffffff" cx="15.1632" cy="-405.456" rx="39.75" ry="14.2333"/>
    <ellipse style="fill: none; fill-opacity:0; stroke-width: 1; stroke: #000000" cx="15.1632" cy="-405.456" rx="39.75" ry="14.2333"/>
    <text font-size="6.77333" style="fill: #000000;text-anchor:middle;font-family:Cascadia Code Light;font-style:normal;font-weight:300" x="15.1632" y="-402.492">idProducto</text>
    <line style="fill: none; fill-opacity:0; stroke-width: 1; stroke: #000000" x1="-4.58675" y1="-397.456" x2="34.9132" y2="-397.456"/>
  </g>
  <g>
    <ellipse style="fill: #ffffff" cx="141.502" cy="-368.275" rx="29.875" ry="14.2333"/>
    <ellipse style="fill: none; fill-opacity:0; stroke-width: 1; stroke: #000000" cx="141.502" cy="-368.275" rx="29.875" ry="14.2333"/>
    <text font-size="6.77333" style="fill: #000000;text-anchor:middle;font-family:Cascadia Code Light;font-style:normal;font-weight:300" x="141.502" y="-365.312">stock</text>
  </g>
  <line style="fill: none; fill-opacity:0; stroke-width: 1; stroke: #000000" x1="88.9282" y1="-450.126" x2="85.1956" y2="-367.932"/>
  <line style="fill: none; fill-opacity:0; stroke-width: 1; stroke: #000000" x1="54.9132" y1="-405.456" x2="85.1956" y2="-406.29"/>
  <line style="fill: none; fill-opacity:0; stroke-width: 1; stroke: #000000" x1="85.1956" y1="-406.08" x2="117.891" y2="-406.513"/>
  <line style="fill: none; fill-opacity:0; stroke-width: 1; stroke: #000000" x1="111.135" y1="-368.203" x2="85.1956" y2="-368.142"/>
  <g>
    <ellipse style="fill: #ffffff" cx="-148.45" cy="-181.816" rx="35.8" ry="14.2333"/>
    <ellipse style="fill: none; fill-opacity:0; stroke-width: 1; stroke: #000000" cx="-148.45" cy="-181.816" rx="35.8" ry="14.2333"/>
    <text font-size="6.77333" style="fill: #000000;text-anchor:middle;font-family:Cascadia Code Light;font-style:normal;font-weight:300" x="-148.45" y="-178.853">material</text>
  </g>
  <g>
    <ellipse style="fill: #ffffff" cx="-148.781" cy="-148.755" rx="37.775" ry="14.2333"/>
    <ellipse style="fill: none; fill-opacity:0; stroke-width: 1; stroke: #000000" cx="-148.781" cy="-148.755" rx="37.775" ry="14.2333"/>
    <text font-size="6.77333" style="fill: #000000;text-anchor:middle;font-family:Cascadia Code Light;font-style:normal;font-weight:300" x="-148.781" y="-145.792">idFactura</text>
    <line style="fill: none; fill-opacity:0; stroke-width: 1; stroke: #000000" x1="-166.556" y1="-140.755" x2="-131.006" y2="-140.755"/>
  </g>
  <g>
    <ellipse style="fill: #ffffff" cx="-133.391" cy="-221.63" rx="39.75" ry="14.2333"/>
    <ellipse style="fill: none; fill-opacity:0; stroke-width: 1; stroke: #000000" cx="-133.391" cy="-221.63" rx="39.75" ry="14.2333"/>
    <text font-size="6.77333" style="fill: #000000;text-anchor:middle;font-family:Cascadia Code Light;font-style:normal;font-weight:300" x="-133.391" y="-218.666">nombreEnte</text>
  </g>
  <g>
    <ellipse style="fill: #ffffff" cx="-264.431" cy="-150.658" rx="29.875" ry="14.2333"/>
    <ellipse style="fill: none; fill-opacity:0; stroke-width: 1; stroke: #000000" cx="-264.431" cy="-150.658" rx="29.875" ry="14.2333"/>
    <text font-size="6.77333" style="fill: #000000;text-anchor:middle;font-family:Cascadia Code Light;font-style:normal;font-weight:300" x="-264.431" y="-147.695">marca</text>
  </g>
  <line style="fill: none; fill-opacity:0; stroke-width: 1; stroke: #000000" x1="-215.774" y1="-211.426" x2="-215.459" y2="-149.673"/>
  <line style="fill: none; fill-opacity:0; stroke-width: 1; stroke: #000000" x1="-215.774" y1="-182.594" x2="-184.25" y2="-181.816"/>
  <line style="fill: none; fill-opacity:0; stroke-width: 1; stroke: #000000" x1="-158.096" y1="-210.146" x2="-216.542" y2="-182.979"/>
  <line style="fill: none; fill-opacity:0; stroke-width: 1; stroke: #000000" x1="-234.556" y1="-150.658" x2="-214.236" y2="-149.149"/>
  <line style="fill: none; fill-opacity:0; stroke-width: 1; stroke: #000000" x1="-216.926" y1="-149.917" x2="-186.556" y2="-148.755"/>
  <g>
    <ellipse style="fill: #ffffff" cx="-637.804" cy="-722.471" rx="47.65" ry="14.2333"/>
    <ellipse style="fill: none; fill-opacity:0; stroke-width: 1; stroke: #000000" cx="-637.804" cy="-722.471" rx="47.65" ry="14.2333"/>
    <text font-size="6.77333" style="fill: #000000;text-anchor:middle;font-family:Cascadia Code Light;font-style:normal;font-weight:300" x="-637.804" y="-719.507">nroDispositivo</text>
    <line style="fill: none; fill-opacity:0; stroke-width: 1; stroke: #000000" x1="-665.454" y1="-714.471" x2="-610.154" y2="-714.471"/>
  </g>
  <line style="fill: none; fill-opacity:0; stroke-width: 1; stroke: #000000" x1="-590.154" y1="-722.471" x2="-550.316" y2="-722.454"/>
  <text font-size="12.8" style="fill: #000000;text-anchor:start;font-family:sans-serif;font-style:normal;font-weight:normal" x="-400.4" y="-486.022">
    <tspan x="-400.4" y="-486.022">1:1</tspan>
  </text>
  <text font-size="12.8" style="fill: #000000;text-anchor:start;font-family:sans-serif;font-style:normal;font-weight:normal" x="-84.0338" y="-430.084">
    <tspan x="-84.0338" y="-430.084">1:n</tspan>
  </text>
  <text font-size="12.7998" style="fill: #000000;text-anchor:start;font-family:sans-serif;font-style:normal;font-weight:normal" x="-786.712" y="-497.613">
    <tspan x="-786.712" y="-497.613">1:1</tspan>
  </text>
  <text font-size="12.7998" style="fill: #000000;text-anchor:start;font-family:sans-serif;font-style:normal;font-weight:normal" x="-510.193" y="-535.644">
    <tspan x="-510.193" y="-535.644">1:n</tspan>
  </text>
  <text font-size="12.7998" style="fill: #000000;text-anchor:start;font-family:sans-serif;font-style:normal;font-weight:normal" x="-183.926" y="-311.545">
    <tspan x="-183.926" y="-311.545">1:n</tspan>
  </text>
  <line style="fill: none; fill-opacity:0; stroke-width: 1; stroke: #000000" x1="-749.694" y1="-477.453" x2="-577.671" y2="-478.291"/>
  <polyline style="fill: none; fill-opacity:0; stroke-width: 1; stroke: #000000" points="-330.219,-600.992 -291.462,-600.992 -291.462,-477.114 -252.706,-477.114 "/>
  <polyline style="fill: none; fill-opacity:0; stroke-width: 1; stroke: #000000" points="-523.977,-615.397 -459.502,-615.397 -459.502,-600.992 -395.027,-600.992 "/>
  <g>
    <rect style="fill: #ffffff" x="-373.305" y="-637.334" width="20.55" height="14.9"/>
    <text font-size="12.7998" style="fill: #000000;text-anchor:start;font-family:sans-serif;font-style:normal;font-weight:normal" x="-373.305" y="-625.434">
      <tspan x="-373.305" y="-625.434">1:n</tspan>
    </text>
  </g>
  <g>
    <ellipse style="fill: #ffffff" cx="-217.59" cy="-664.233" rx="39.75" ry="14.2333"/>
    <ellipse style="fill: none; fill-opacity:0; stroke-width: 1; stroke: #000000" cx="-217.59" cy="-664.233" rx="39.75" ry="14.2333"/>
    <text font-size="6.77333" style="fill: #000000;text-anchor:middle;font-family:Cascadia Code Light;font-style:normal;font-weight:300" x="-217.59" y="-661.27">antiguedad</text>
  </g>
  <line style="fill: none; fill-opacity:0; stroke-width: 1; stroke: #000000" x1="-177.84" y1="-664.233" x2="-159.406" y2="-660.435"/>
  <g>
    <ellipse style="fill: #ffffff" cx="-80.6906" cy="-551.274" rx="29.875" ry="14.2333"/>
    <ellipse style="fill: none; fill-opacity:0; stroke-width: 1; stroke: #000000" cx="-80.6906" cy="-551.274" rx="29.875" ry="14.2333"/>
    <ellipse style="fill: none; fill-opacity:0; stroke-width: 1; stroke: #000000" cx="-80.6906" cy="-551.274" rx="21.875" ry="10.2333"/>
    <text font-size="6.77333" style="fill: #000000;text-anchor:middle;font-family:Cascadia Code Light;font-style:normal;font-weight:300" x="-80.6906" y="-548.31">login</text>
  </g>
  <line style="fill: none; fill-opacity:0; stroke-width: 1; stroke: #000000" x1="-110.566" y1="-551.274" x2="-160.512" y2="-558.967"/>
  <g>
    <ellipse style="fill: #ffffff" cx="83.3891" cy="-640.564" rx="33.825" ry="14.2333"/>
    <ellipse style="fill: none; fill-opacity:0; stroke-width: 1; stroke: #000000" cx="83.3891" cy="-640.564" rx="33.825" ry="14.2333"/>
    <text font-size="6.77333" style="fill: #000000;text-anchor:middle;font-family:Cascadia Code Light;font-style:normal;font-weight:300" x="83.3891" y="-637.6">codArea</text>
  </g>
  <g>
    <ellipse style="fill: #ffffff" cx="87.7207" cy="-609.871" rx="31.85" ry="14.2333"/>
    <ellipse style="fill: none; fill-opacity:0; stroke-width: 1; stroke: #000000" cx="87.7207" cy="-609.871" rx="31.85" ry="14.2333"/>
    <text font-size="6.77333" style="fill: #000000;text-anchor:middle;font-family:Cascadia Code Light;font-style:normal;font-weight:300" x="87.7207" y="-606.908">numero</text>
  </g>
  <line style="fill: none; fill-opacity:0; stroke-width: 1; stroke: #000000" x1="13.0512" y1="-636.79" x2="49.5641" y2="-640.564"/>
  <line style="fill: none; fill-opacity:0; stroke-width: 1; stroke: #000000" x1="9.98238" y1="-626.355" x2="58.4968" y2="-616.068"/>
  <g>
    <ellipse style="fill: #ffffff" cx="66.4264" cy="-693.867" rx="29.875" ry="14.2333"/>
    <ellipse style="fill: none; fill-opacity:0; stroke-width: 1; stroke: #000000" cx="66.4264" cy="-693.867" rx="29.875" ry="14.2333"/>
    <text font-size="6.77333" style="fill: #000000;text-anchor:middle;font-family:Cascadia Code Light;font-style:normal;font-weight:300" x="66.4264" y="-690.904">calle</text>
  </g>
  <g>
    <ellipse style="fill: #ffffff" cx="68.6641" cy="-728.735" rx="31.85" ry="14.2333"/>
    <ellipse style="fill: none; fill-opacity:0; stroke-width: 1; stroke: #000000" cx="68.6641" cy="-728.735" rx="31.85" ry="14.2333"/>
    <text font-size="6.77333" style="fill: #000000;text-anchor:middle;font-family:Cascadia Code Light;font-style:normal;font-weight:300" x="68.6641" y="-725.772">numero</text>
  </g>
  <g>
    <ellipse style="fill: #ffffff" cx="63.1644" cy="-761.993" rx="27.9" ry="14.2333"/>
    <ellipse style="fill: none; fill-opacity:0; stroke-width: 1; stroke: #000000" cx="63.1644" cy="-761.993" rx="27.9" ry="14.2333"/>
    <text font-size="6.77333" style="fill: #000000;text-anchor:middle;font-family:Cascadia Code Light;font-style:normal;font-weight:300" x="63.1644" y="-759.029">piso</text>
  </g>
  <g>
    <ellipse style="fill: #ffffff" cx="82.2947" cy="-795.127" rx="43.7" ry="14.2333"/>
    <ellipse style="fill: none; fill-opacity:0; stroke-width: 1; stroke: #000000" cx="82.2947" cy="-795.127" rx="43.7" ry="14.2333"/>
    <text font-size="6.77333" style="fill: #000000;text-anchor:middle;font-family:Cascadia Code Light;font-style:normal;font-weight:300" x="82.2947" y="-792.164">departamento</text>
  </g>
  <g>
    <ellipse style="fill: #ffffff" cx="78.6761" cy="-830.525" rx="37.775" ry="14.2333"/>
    <ellipse style="fill: none; fill-opacity:0; stroke-width: 1; stroke: #000000" cx="78.6761" cy="-830.525" rx="37.775" ry="14.2333"/>
    <text font-size="6.77333" style="fill: #000000;text-anchor:middle;font-family:Cascadia Code Light;font-style:normal;font-weight:300" x="78.6761" y="-827.562">provincia</text>
  </g>
  <g>
    <ellipse style="fill: #ffffff" cx="74.0427" cy="-865.792" rx="37.775" ry="14.2333"/>
    <ellipse style="fill: none; fill-opacity:0; stroke-width: 1; stroke: #000000" cx="74.0427" cy="-865.792" rx="37.775" ry="14.2333"/>
    <text font-size="6.77333" style="fill: #000000;text-anchor:middle;font-family:Cascadia Code Light;font-style:normal;font-weight:300" x="74.0427" y="-862.828">localidad</text>
  </g>
  <g>
    <ellipse style="fill: #ffffff" cx="-184.625" cy="-712.46" rx="48.35" ry="14.2333"/>
    <ellipse style="fill: none; fill-opacity:0; stroke-width: 1; stroke: #000000" cx="-184.625" cy="-712.46" rx="48.35" ry="14.2333"/>
    <ellipse style="fill: none; fill-opacity:0; stroke-width: 1; stroke: #000000" cx="-184.625" cy="-712.46" rx="40.35" ry="10.2333"/>
    <text font-size="6.77323" style="fill: #000000;text-anchor:middle;font-family:monospace;font-style:normal;font-weight:normal" x="-184.625" y="-710.343">nombreCompleto</text>
  </g>
  <line style="fill: none; fill-opacity:0; stroke-width: 1; stroke: #000000" x1="-177.879" y1="-697.905" x2="-160.238" y2="-659.842"/>
  <line style="fill: none; fill-opacity:0; stroke-width: 1; stroke: #000000" x1="-191.488" y1="-727.017" x2="-220.459" y2="-788.466"/>
  <line style="fill: none; fill-opacity:0; stroke-width: 1; stroke: #000000" x1="-231.293" y1="-713.301" x2="-250.906" y2="-742.255"/>
  <g>
    <ellipse style="fill: #ffffff" cx="-614.421" cy="-316.431" rx="47.65" ry="14.2333"/>
    <ellipse style="fill: none; fill-opacity:0; stroke-width: 1; stroke: #000000" cx="-614.421" cy="-316.431" rx="47.65" ry="14.2333"/>
    <text font-size="6.77333" style="fill: #000000;text-anchor:middle;font-family:Cascadia Code Light;font-style:normal;font-weight:300" x="-614.421" y="-313.467">nombreCompleto</text>
  </g>
  <line style="fill: none; fill-opacity:0; stroke-width: 1; stroke: #000000" x1="-566.282" y1="-316.426" x2="-548.009" y2="-316.424"/>
  <g>
    <ellipse style="fill: #ffffff" cx="-483.35" cy="-368.786" rx="29.875" ry="14.2333"/>
    <ellipse style="fill: none; fill-opacity:0; stroke-width: 1; stroke: #000000" cx="-483.35" cy="-368.786" rx="29.875" ry="14.2333"/>
    <text font-size="6.77333" style="fill: #000000;text-anchor:middle;font-family:Cascadia Code Light;font-style:normal;font-weight:300" x="-483.35" y="-365.822">login</text>
  </g>
  <line style="fill: none; fill-opacity:0; stroke-width: 1; stroke: #000000" x1="-550.387" y1="-370.83" x2="-513.225" y2="-368.786"/>
  <g>
    <ellipse style="fill: #ffffff" cx="-702.969" cy="-440.732" rx="33.825" ry="14.2333"/>
    <ellipse style="fill: none; fill-opacity:0; stroke-width: 1; stroke: #000000" cx="-702.969" cy="-440.732" rx="33.825" ry="14.2333"/>
    <text font-size="6.77333" style="fill: #000000;text-anchor:middle;font-family:Cascadia Code Light;font-style:normal;font-weight:300" x="-702.969" y="-437.769">codArea</text>
  </g>
  <g>
    <ellipse style="fill: #ffffff" cx="-707.62" cy="-405.354" rx="31.85" ry="14.2333"/>
    <ellipse style="fill: none; fill-opacity:0; stroke-width: 1; stroke: #000000" cx="-707.62" cy="-405.354" rx="31.85" ry="14.2333"/>
    <text font-size="6.77333" style="fill: #000000;text-anchor:middle;font-family:Cascadia Code Light;font-style:normal;font-weight:300" x="-707.62" y="-402.39">numero</text>
  </g>
  <line style="fill: none; fill-opacity:0; stroke-width: 1; stroke: #000000" x1="-651.443" y1="-437.547" x2="-669.144" y2="-440.732"/>
  <line style="fill: none; fill-opacity:0; stroke-width: 1; stroke: #000000" x1="-652.361" y1="-426.425" x2="-682.925" y2="-414.77"/>
  <g>
    <ellipse style="fill: #ffffff" cx="174.467" cy="-812.951" rx="31.85" ry="14.2333"/>
    <ellipse style="fill: none; fill-opacity:0; stroke-width: 1; stroke: #000000" cx="174.467" cy="-812.951" rx="31.85" ry="14.2333"/>
    <text font-size="6.77333" style="fill: #000000;text-anchor:middle;font-family:Cascadia Code Light;font-style:normal;font-weight:300" x="174.467" y="-809.987">numero</text>
  </g>
  <line style="fill: none; fill-opacity:0; stroke-width: 1; stroke: #000000" x1="113.124" y1="-824.205" x2="144.52" y2="-818.445"/>
  <g>
    <ellipse style="fill: #ffffff" cx="188.971" cy="-845.653" rx="49.625" ry="14.2333"/>
    <ellipse style="fill: none; fill-opacity:0; stroke-width: 1; stroke: #000000" cx="188.971" cy="-845.653" rx="49.625" ry="14.2333"/>
    <text font-size="6.77333" style="fill: #000000;text-anchor:middle;font-family:Cascadia Code Light;font-style:normal;font-weight:300" x="188.971" y="-842.69">nombreProvincia</text>
  </g>
  <line style="fill: none; fill-opacity:0; stroke-width: 1; stroke: #000000" x1="114.665" y1="-835.461" x2="143.72" y2="-839.447"/>
  <line style="fill: none; fill-opacity:0; stroke-width: 1; stroke: #000000" x1="14.1834" y1="-682.399" x2="14.1834" y2="-867.914"/>
  <line style="fill: none; fill-opacity:0; stroke-width: 1; stroke: #000000" x1="36.2677" y1="-865.792" x2="14.1834" y2="-865.833"/>
  <line style="fill: none; fill-opacity:0; stroke-width: 1; stroke: #000000" x1="40.0484" y1="-829.86" x2="13.8861" y2="-829.86"/>
  <line style="fill: none; fill-opacity:0; stroke-width: 1; stroke: #000000" x1="38.1122" y1="-795.285" x2="13.5888" y2="-795.373"/>
  <line style="fill: none; fill-opacity:0; stroke-width: 1; stroke: #000000" x1="35.2644" y1="-761.993" x2="14.778" y2="-762.373"/>
  <line style="fill: none; fill-opacity:0; stroke-width: 1; stroke: #000000" x1="6.29122" y1="-683.391" x2="13.5888" y2="-682.994"/>
  <line style="fill: none; fill-opacity:0; stroke-width: 1; stroke: #000000" x1="35.8862" y1="-692.805" x2="14.1834" y2="-698.751"/>
  <line style="fill: none; fill-opacity:0; stroke-width: 1; stroke: #000000" x1="36.3095" y1="-728.761" x2="14.1834" y2="-728.778"/>
  <g>
    <ellipse style="fill: #ffffff" cx="-659.823" cy="-68.0199" rx="29.875" ry="14.2333"/>
    <ellipse style="fill: none; fill-opacity:0; stroke-width: 1; stroke: #000000" cx="-659.823" cy="-68.0199" rx="29.875" ry="14.2333"/>
    <text font-size="6.77333" style="fill: #000000;text-anchor:middle;font-family:Cascadia Code Light;font-style:normal;font-weight:300" x="-659.823" y="-65.0566">calle</text>
  </g>
  <g>
    <ellipse style="fill: #ffffff" cx="-633.897" cy="-106.07" rx="31.85" ry="14.2333"/>
    <ellipse style="fill: none; fill-opacity:0; stroke-width: 1; stroke: #000000" cx="-633.897" cy="-106.07" rx="31.85" ry="14.2333"/>
    <text font-size="6.77333" style="fill: #000000;text-anchor:middle;font-family:Cascadia Code Light;font-style:normal;font-weight:300" x="-633.897" y="-103.107">numero</text>
  </g>
  <g>
    <ellipse style="fill: #ffffff" cx="-630.912" cy="-138.621" rx="27.9" ry="14.2333"/>
    <ellipse style="fill: none; fill-opacity:0; stroke-width: 1; stroke: #000000" cx="-630.912" cy="-138.621" rx="27.9" ry="14.2333"/>
    <text font-size="6.77333" style="fill: #000000;text-anchor:middle;font-family:Cascadia Code Light;font-style:normal;font-weight:300" x="-630.912" y="-135.657">piso</text>
  </g>
  <g>
    <ellipse style="fill: #ffffff" cx="-643.955" cy="-169.28" rx="43.7" ry="14.2333"/>
    <ellipse style="fill: none; fill-opacity:0; stroke-width: 1; stroke: #000000" cx="-643.955" cy="-169.28" rx="43.7" ry="14.2333"/>
    <text font-size="6.77333" style="fill: #000000;text-anchor:middle;font-family:Cascadia Code Light;font-style:normal;font-weight:300" x="-643.955" y="-166.317">departamento</text>
  </g>
  <g>
    <ellipse style="fill: #ffffff" cx="-647.573" cy="-204.678" rx="37.775" ry="14.2333"/>
    <ellipse style="fill: none; fill-opacity:0; stroke-width: 1; stroke: #000000" cx="-647.573" cy="-204.678" rx="37.775" ry="14.2333"/>
    <text font-size="6.77333" style="fill: #000000;text-anchor:middle;font-family:Cascadia Code Light;font-style:normal;font-weight:300" x="-647.573" y="-201.715">provincia</text>
  </g>
  <g>
    <ellipse style="fill: #ffffff" cx="-652.206" cy="-239.945" rx="37.775" ry="14.2333"/>
    <ellipse style="fill: none; fill-opacity:0; stroke-width: 1; stroke: #000000" cx="-652.206" cy="-239.945" rx="37.775" ry="14.2333"/>
    <text font-size="6.77333" style="fill: #000000;text-anchor:middle;font-family:Cascadia Code Light;font-style:normal;font-weight:300" x="-652.206" y="-236.981">localidad</text>
  </g>
  <g>
    <ellipse style="fill: #ffffff" cx="-788.308" cy="-184.982" rx="31.85" ry="14.2333"/>
    <ellipse style="fill: none; fill-opacity:0; stroke-width: 1; stroke: #000000" cx="-788.308" cy="-184.982" rx="31.85" ry="14.2333"/>
    <text font-size="6.77333" style="fill: #000000;text-anchor:middle;font-family:Cascadia Code Light;font-style:normal;font-weight:300" x="-788.308" y="-182.019">numero</text>
  </g>
  <line style="fill: none; fill-opacity:0; stroke-width: 1; stroke: #000000" x1="-683.487" y1="-199.652" x2="-757.41" y2="-189.306"/>
  <g>
    <ellipse style="fill: #ffffff" cx="-784.056" cy="-218.039" rx="49.625" ry="14.2333"/>
    <ellipse style="fill: none; fill-opacity:0; stroke-width: 1; stroke: #000000" cx="-784.056" cy="-218.039" rx="49.625" ry="14.2333"/>
    <text font-size="6.77333" style="fill: #000000;text-anchor:middle;font-family:Cascadia Code Light;font-style:normal;font-weight:300" x="-784.056" y="-215.075">nombreProvincia</text>
  </g>
  <line style="fill: none; fill-opacity:0; stroke-width: 1; stroke: #000000" x1="-684.634" y1="-208.306" x2="-736.59" y2="-213.392"/>
  <line style="fill: none; fill-opacity:0; stroke-width: 1; stroke: #000000" x1="-546.492" y1="-239.608" x2="-548.19" y2="-70.8548"/>
  <line style="fill: none; fill-opacity:0; stroke-width: 1; stroke: #000000" x1="-629.543" y1="-69.1917" x2="-547.199" y2="-72.3783"/>
  <line style="fill: none; fill-opacity:0; stroke-width: 1; stroke: #000000" x1="-601.544" y1="-105.899" x2="-547.199" y2="-105.612"/>
  <line style="fill: none; fill-opacity:0; stroke-width: 1; stroke: #000000" x1="-602.589" y1="-138.339" x2="-546.846" y2="-137.785"/>
  <line style="fill: none; fill-opacity:0; stroke-width: 1; stroke: #000000" x1="-613.332" y1="-239.002" x2="-547.743" y2="-229.121"/>
  <line style="fill: none; fill-opacity:0; stroke-width: 1; stroke: #000000" x1="-609.337" y1="-204.938" x2="-546.271" y2="-205.366"/>
  <line style="fill: none; fill-opacity:0; stroke-width: 1; stroke: #000000" x1="-600.088" y1="-171.941" x2="-546.061" y2="-171.521"/>
</svg>
