<svg xmlns="http://www.w3.org/2000/svg" xmlns:xlink="http://www.w3.org/1999/xlink" xmlns:lucid="lucid" width="1540" height="922.73"><g transform="translate(-200 2.7333333333333325)" lucid:page-tab-id="0_0"><path d="M220 106a6 6 0 0 1 6-6h148a6 6 0 0 1 6 6v88a6 6 0 0 1-6 6H226a6 6 0 0 1-6-6z" stroke="#5e5e5e" stroke-width="3" fill="#fff"/><use xlink:href="#a" transform="matrix(1,0,0,1,232,112) translate(-1.9999999999999858 33.999999999999986)"/><use xlink:href="#b" transform="matrix(1,0,0,1,232,112) translate(18.000000000000014 77.99999999999997)"/><path d="M1060 500c0 33.14-49.25 60-110 60s-110-26.86-110-60 49.25-60 110-60 110 26.86 110 60z" stroke="#5e5e5e" stroke-width="3" fill="#fff"/><use xlink:href="#c" transform="matrix(1,0,0,1,845,445) translate(35.00500000000002 68.37499999999999)"/><path d="M1560 106a6 6 0 0 1 6-6h148a6 6 0 0 1 6 6v48a6 6 0 0 1-6 6h-148a6 6 0 0 1-6-6z" stroke="#5e5e5e" stroke-width="3" fill="#fff"/><use xlink:href="#d" transform="matrix(1,0,0,1,1572,112) translate(-1.9999999999999858 33.999999999999986)"/><path d="M945.1 109.76l1.06.25 1.02.43.94.58.83.72.72.84.57.93.42 1 .27 1.12L951 420h-2l-.07-304.15-.18-.72-.3-.73-.4-.66-.52-.6-.6-.5-.66-.42-.73-.3-.76-.18-.82-.07H611.24v-2h332.8zm-562.67 1.9v-2h164.8v2z" stroke="#5e5e5e" stroke-width=".05" fill="#5e5e5e"/><path d="M382.46 111.67h-1.03v-2h1.03z" fill="#5e5e5e"/><path d="M382.48 111.7h-1.07v-2.05h1.08zm-1.03-2v1.95h.98v-1.95z" stroke="#5e5e5e" stroke-width=".05" fill="#5e5e5e"/><path d="M950 435.26L945.36 421h9.28z" fill="#5e5e5e"/><path d="M950 438.5l-6-18.5h12zm-3.26-16.5l3.26 10.03 3.26-10.03z" stroke="#5e5e5e" stroke-width=".05" fill="#5e5e5e"/><use xlink:href="#e" transform="matrix(1,0,0,1,547.2423275270797,98.93953502177597) translate(0.005000000000002558 18.133333333333333)"/><use xlink:href="#f" transform="matrix(1,0,0,1,547.2423275270797,98.93953502177597) translate(42.67166666666667 18.133333333333333)"/><path d="M921.75 129.07l1.1.27 1.02.42.94.57.84.72.72.83.57.94.42 1.02.26 1.06.1 1.06v302.88h-2v-302.8l-.07-.82-.2-.76-.3-.73-.4-.67-.5-.6-.6-.5-.67-.4-.72-.3-.73-.2-521.55-.06v-2z" stroke="#5e5e5e" stroke-width=".05" fill="#5e5e5e"/><path d="M927.7 439.75l-1 .1-1 .13v-1.17h2z" fill="#5e5e5e"/><path d="M927.72 439.77l-1.02.1-1.03.14v-1.2h2.05zm-2-.93v1.1l.97-.13.97-.08v-.88z" stroke="#5e5e5e" stroke-width=".05" fill="#5e5e5e"/><path d="M398.95 134.63L384.68 130l14.27-4.64z" fill="#5e5e5e"/><path d="M399.95 136l-18.5-6 18.5-6zm-12.03-6l10.03 3.26v-6.52z" stroke="#5e5e5e" stroke-width=".05" fill="#5e5e5e"/><use xlink:href="#g" transform="matrix(1,0,0,1,497.55559340491857,133.9994675040234) translate(0.0049999999999954525 18.133333333333333)"/><use xlink:href="#h" transform="matrix(1,0,0,1,497.55559340491857,133.9994675040234) translate(42.67166666666666 18.133333333333333)"/><use xlink:href="#i" transform="matrix(1,0,0,1,497.55559340491857,133.9994675040234) translate(138.67166666666665 18.133333333333333)"/><use xlink:href="#j" transform="matrix(1,0,0,1,497.55559340491857,133.9994675040234) translate(170.67166666666665 18.133333333333333)"/><path d="M1244.93 131.04l-222.08.03-.73.18-.72.3-.67.4-.6.52-.5.6-.42.66-.3.73-.17.76-.06.82V450.1h-2V135.95l.08-1.06.26-1.06.43-1.02.57-.94.72-.83.83-.72.94-.57 1-.42 1.1-.27 222.33-.03zm295.1-.04l-135.1.02v-2l135.1-.02z" stroke="#5e5e5e" stroke-width=".05" fill="#5e5e5e"/><path d="M1018.67 451.5l-2-.82v-.62h2z" fill="#5e5e5e"/><path d="M1018.7 451.53l-2.06-.83v-.66h2.05zm-2-1.44v.57l1.94.8v-1.38z" stroke="#5e5e5e" stroke-width=".05" fill="#5e5e5e"/><path d="M1555.3 130l-14.27 4.64v-9.28z" fill="#5e5e5e"/><path d="M1558.54 130l-18.5 6v-12zm-16.5 3.26l10.02-3.26-10.03-3.26z" stroke="#5e5e5e" stroke-width=".05" fill="#5e5e5e"/><use xlink:href="#k" transform="matrix(1,0,0,1,1244.9320902630884,94.80000000000001) translate(0.0049999999999954525 18.133333333333333)"/><use xlink:href="#l" transform="matrix(1,0,0,1,1244.9320902630884,94.80000000000001) translate(42.67166666666666 18.133333333333333)"/><use xlink:href="#m" transform="matrix(1,0,0,1,1244.9320902630884,94.80000000000001) translate(74.67166666666667 41.599999999999994)"/><use xlink:href="#n" transform="matrix(1,0,0,1,1244.9320902630884,94.80000000000001) translate(42.67166666666667 65.06666666666666)"/><path d="M1261.94 500.98L1080 501v-2l181.94-.02zm379.06-6.94l-.08 1.06-.26 1.06-.42 1.02-.57.94-.72.83-.83.72-.94.57-1.02.42-1.1.27h-53.12v-2h52.88l.72-.18.73-.3.67-.4.6-.52.5-.6.4-.66.3-.73.2-.76.06-.82v-331.5h2z" stroke="#5e5e5e" stroke-width=".05" fill="#5e5e5e"/><path d="M1641 162.5h-2v-1.04h2z" fill="#5e5e5e"/><path d="M1641.03 162.5h-2.06v-1.06h2.06zm-2-1v.96h1.94v-.97z" stroke="#5e5e5e" stroke-width=".05" fill="#5e5e5e"/><path d="M1079 504.64l-14.26-4.64 14.26-4.64z" fill="#5e5e5e"/><path d="M1080 506l-18.5-6 18.5-6zm-12.03-6l10.03 3.26v-6.52z" stroke="#5e5e5e" stroke-width=".05" fill="#5e5e5e"/><use xlink:href="#o" transform="matrix(1,0,0,1,1261.944352519908,488.26666666666665) translate(0.0049999999999954525 18.133333333333333)"/><use xlink:href="#p" transform="matrix(1,0,0,1,1261.944352519908,488.26666666666665) translate(42.67166666666666 18.133333333333333)"/><use xlink:href="#q" transform="matrix(1,0,0,1,1261.944352519908,488.26666666666665) translate(74.67166666666665 18.133333333333333)"/><use xlink:href="#r" transform="matrix(1,0,0,1,1261.944352519908,488.26666666666665) translate(117.33833333333331 18.133333333333333)"/><use xlink:href="#s" transform="matrix(1,0,0,1,1261.944352519908,488.26666666666665) translate(181.3383333333333 18.133333333333333)"/><use xlink:href="#t" transform="matrix(1,0,0,1,1261.944352519908,488.26666666666665) translate(213.3383333333333 18.133333333333333)"/><path d="M840 826a6 6 0 0 1 6-6h208a6 6 0 0 1 6 6v48a6 6 0 0 1-6 6H846a6 6 0 0 1-6-6z" stroke="#5e5e5e" stroke-width="3" fill="#fff"/><use xlink:href="#u" transform="matrix(1,0,0,1,852,832) translate(8.000000000000014 33.999999999999986)"/><path d="M951 800.03h-2v-98.28h2zm0-121.74h-2V562.5h2z" stroke="#5e5e5e" stroke-width=".05" fill="#5e5e5e"/><path d="M950 561.5h1v1.03h-2v-1.05z" fill="#5e5e5e"/><path d="M950 561.48l1.02-.02v1.1H949v-1.1zm-.98 1.02H951v-1l-1 .03-.96-.03z" stroke="#5e5e5e" stroke-width=".05" fill="#5e5e5e"/><path d="M950 815.3l-4.64-14.27h9.28z" fill="#5e5e5e"/><path d="M950 818.54l-6-18.5h12zm-3.26-16.5l3.26 10.02 3.26-10.03z" stroke="#5e5e5e" stroke-width=".05" fill="#5e5e5e"/><use xlink:href="#v" transform="matrix(1,0,0,1,832.6666666666666,678.2851321488939) translate(0.0049999999999954525 18.133333333333333)"/><use xlink:href="#w" transform="matrix(1,0,0,1,832.6666666666666,678.2851321488939) translate(42.67166666666666 18.133333333333333)"/><use xlink:href="#t" transform="matrix(1,0,0,1,832.6666666666666,678.2851321488939) translate(128.005 18.133333333333333)"/><path d="M220 646a6 6 0 0 1 6-6h148a6 6 0 0 1 6 6v108a6 6 0 0 1-6 6H226a6 6 0 0 1-6-6z" stroke="#5e5e5e" stroke-width="3" fill="#fff"/><use xlink:href="#x" transform="matrix(1,0,0,1,232,652) translate(48.00000000000001 33.999999999999986)"/><use xlink:href="#y" transform="matrix(1,0,0,1,232,652) translate(18.000000000000014 77.99999999999997)"/><path d="M896 389l1.04.08 1.07.26 1.03.42.93.57.84.72.7.83.6.94.4 1.02.27 1.1.08 31.03h-2l-.08-30.8-.17-.7-.3-.74-.4-.67-.52-.6-.6-.5-.66-.4-.73-.3-.77-.2-.82-.06-148.12-.02v-2zm-595-5.04l.06.82.2.76.3.73.4.67.5.6.6.5.67.4.73.3.72.2h79.93v2h-80.16l-1.1-.28-1.02-.42-.94-.57-.83-.72-.72-.83-.57-.94-.42-1.02-.26-1.06-.08-1.06V202.46h2z" stroke="#5e5e5e" stroke-width=".05" fill="#5e5e5e"/><path d="M301 202.5h-2v-1.04h2z" fill="#5e5e5e"/><path d="M301.02 202.5h-2.04v-1.06h2.04zm-2-1v.96h1.96v-.97z" stroke="#5e5e5e" stroke-width=".05" fill="#5e5e5e"/><path d="M901.95 441.24l-4.64-14.27h9.28z" fill="#5e5e5e"/><path d="M901.95 444.48l-6-18.5h12zm-3.26-16.5l3.25 10.02 3.26-10.03z" stroke="#5e5e5e" stroke-width=".05" fill="#5e5e5e"/><use xlink:href="#z" transform="matrix(1,0,0,1,385.11111111111103,378.26666666666665) translate(0.0049999999999954525 18.133333333333333)"/><use xlink:href="#A" transform="matrix(1,0,0,1,385.11111111111103,378.26666666666665) translate(42.67166666666666 18.133333333333333)"/><use xlink:href="#B" transform="matrix(1,0,0,1,385.11111111111103,378.26666666666665) translate(128.005 18.133333333333333)"/><use xlink:href="#C" transform="matrix(1,0,0,1,385.11111111111103,378.26666666666665) translate(160.005 18.133333333333333)"/><use xlink:href="#D" transform="matrix(1,0,0,1,385.11111111111103,378.26666666666665) translate(245.3383333333333 18.133333333333333)"/><use xlink:href="#E" transform="matrix(1,0,0,1,385.11111111111103,378.26666666666665) translate(288.005 18.133333333333333)"/><path d="M875.2 429.1l1.12.28 1 .42.95.57.84.7.72.85.57.94.4 1 .27 1.08.08 1.06v15.04h-2v-14.96l-.06-.82-.2-.77-.3-.73-.4-.67-.5-.6-.6-.5-.68-.42-.72-.3-.73-.17h-191.2v-2zm-574.13-4.24l.18.72.3.73.4.67.52.6.6.5.66.42.73.3.76.17.82.07h132.4v2H305.96l-1.06-.1-1.06-.24-1.02-.42-.94-.58-.83-.7-.72-.85-.57-.93-.42-1.02-.27-1.1-.07-205.13h2z" stroke="#5e5e5e" stroke-width=".05" fill="#5e5e5e"/><path d="M881.15 451.6l-2 .87V451h2z" fill="#5e5e5e"/><path d="M881.18 451.62l-2.05.9v-1.53h2.05zm-2-.58v1.4l1.95-.86v-.54z" stroke="#5e5e5e" stroke-width=".05" fill="#5e5e5e"/><path d="M304.64 218.97h-9.28L300 204.7z" fill="#5e5e5e"/><path d="M306 219.97h-12l6-18.5zm-9.26-2h6.52L300 207.94z" stroke="#5e5e5e" stroke-width=".05" fill="#5e5e5e"/><use xlink:href="#F" transform="matrix(1,0,0,1,438.4444444444444,418.30353272299476) translate(0.0049999999999954525 18.133333333333333)"/><use xlink:href="#G" transform="matrix(1,0,0,1,438.4444444444444,418.30353272299476) translate(42.67166666666666 18.133333333333333)"/><use xlink:href="#H" transform="matrix(1,0,0,1,438.4444444444444,418.30353272299476) translate(128.005 18.133333333333333)"/><path d="M575.56 501.04l-270.38.03-.72.18-.73.3-.67.4-.6.52-.5.6-.4.66-.3.73-.2.76-.06.82v131.5h-2V505.96l.08-1.06.26-1.06.42-1.02.57-.94.72-.83.83-.72.94-.57 1.02-.42 1.1-.27 270.62-.03zM820 501l-116.44.02v-2L820 499z" stroke="#5e5e5e" stroke-width=".05" fill="#5e5e5e"/><path d="M301 638.54h-2v-1.03h2z" fill="#5e5e5e"/><path d="M301.02 638.56h-2.04v-1.07h2.04zm-2-1.02v.97h1.96v-.96z" stroke="#5e5e5e" stroke-width=".05" fill="#5e5e5e"/><path d="M835.26 500L821 504.64v-9.28z" fill="#5e5e5e"/><path d="M838.5 500l-18.5 6v-12zm-16.5 3.26l10.03-3.26-10.03-3.26z" stroke="#5e5e5e" stroke-width=".05" fill="#5e5e5e"/><use xlink:href="#I" transform="matrix(1,0,0,1,575.5555555555558,488.26666666666665) translate(0.0049999999999954525 18.133333333333333)"/><use xlink:href="#J" transform="matrix(1,0,0,1,575.5555555555558,488.26666666666665) translate(42.67166666666666 18.133333333333333)"/><path d="M576.9 521.12H328.26l-.82.07-.77.17-.72.3-.67.4-.6.52-.52.6-.4.65-.3.73-.18.72-.07 94.72h-2l.07-94.95.27-1.1.42-1.03.56-.93.72-.83.83-.7.95-.6 1-.4 1.08-.26 1.06-.08h248.7zm266.67 0H694.22v-2h149.35z" stroke="#5e5e5e" stroke-width=".05" fill="#5e5e5e"/><path d="M844.9 520.65l.3.47h-1.65v-2h.4z" fill="#5e5e5e"/><path d="M844.9 520.64l.36.5h-1.74v-2.04h.45zm-1.33-1.5v1.96h1.6l-.3-.44-.92-1.5z" stroke="#5e5e5e" stroke-width=".05" fill="#5e5e5e"/><path d="M322.23 635.3L317.6 621h9.26z" fill="#5e5e5e"/><path d="M322.23 638.53l-6-18.5h12zm-3.26-16.5l3.26 10.02 3.26-10.03z" stroke="#5e5e5e" stroke-width=".05" fill="#5e5e5e"/><use xlink:href="#K" transform="matrix(1,0,0,1,576.8888888888891,508.38937039349355) translate(0.005000000000002558 18.133333333333333)"/><use xlink:href="#L" transform="matrix(1,0,0,1,576.8888888888891,508.38937039349355) translate(42.67166666666667 18.133333333333333)"/><path d="M398.22 571.07H347.4l-.73.18-.72.3-.67.4-.6.52-.5.6-.4.66-.3.73-.2.76-.06.82v61.48h-2v-61.56l.08-1.06.26-1.06.42-1.02.57-.94.72-.83.83-.72.94-.57 1-.42 1.12-.27h51.06zm485.05-3.6l-.04.48-.13.55-.22.53-.3.48-.36.44-.44.37-.48.3-.52.23-.56.13-.52.04-172.14.02v-2l172.06-.02.3-.02.24-.06.23-.1.2-.13.2-.17.16-.2.13-.2.1-.25.05-.24.02-.33z" stroke="#5e5e5e" stroke-width=".05" fill="#5e5e5e"/><path d="M343.22 638.52h-2v-1.03h2z" fill="#5e5e5e"/><path d="M343.24 638.54h-2.05v-1.07h2.04zm-2-1.02v.97h1.95v-.98z" stroke="#5e5e5e" stroke-width=".05" fill="#5e5e5e"/><path d="M886.9 566.4h-9.26l4.63-14.28z" fill="#5e5e5e"/><path d="M888.28 567.4h-12.02l6-18.52zm-9.27-2h6.53l-3.26-10.04z" stroke="#5e5e5e" stroke-width=".05" fill="#5e5e5e"/><use xlink:href="#M" transform="matrix(1,0,0,1,398.22222222222285,558.2666666666667) translate(0.0049999999999954525 18.133333333333333)"/><use xlink:href="#N" transform="matrix(1,0,0,1,398.22222222222285,558.2666666666667) translate(42.67166666666666 18.133333333333333)"/><use xlink:href="#O" transform="matrix(1,0,0,1,398.22222222222285,558.2666666666667) translate(170.67166666666665 18.133333333333333)"/><use xlink:href="#i" transform="matrix(1,0,0,1,398.22222222222285,558.2666666666667) translate(202.67166666666665 18.133333333333333)"/><use xlink:href="#P" transform="matrix(1,0,0,1,398.22222222222285,558.2666666666667) translate(234.67166666666665 18.133333333333333)"/><path d="M452.9 599.5h-89.97l-.82.07-.75.2-.73.3-.67.4-.6.5-.5.6-.4.67-.3.72-.2.73-.06 16.3h-2l.07-16.55.26-1.1.42-1.02.58-.94.7-.84.85-.72.93-.57 1.03-.42 1.07-.26 1.05-.1h90.04zm498.1-6.95l-.08 1.05-.26 1.07-.42 1.02-.57.92-.72.84-.83.7-.94.6-1.02.4-1.1.27-300.17.04v-2l299.92-.04.72-.17.73-.3.67-.4.6-.52.5-.6.4-.66.3-.73.2-.76.06-.83V562.5h2z" stroke="#5e5e5e" stroke-width=".05" fill="#5e5e5e"/><path d="M950 561.5h1v1.03h-2v-1.05z" fill="#5e5e5e"/><path d="M950 561.48l1.02-.02v1.1H949v-1.1zm-.98 1.02H951v-1l-1 .03-.96-.03z" stroke="#5e5e5e" stroke-width=".05" fill="#5e5e5e"/><path d="M356.9 635.27L352.25 621h9.27z" fill="#5e5e5e"/><path d="M356.9 638.5l-6.02-18.5h12.02zm-3.27-16.5l3.26 10.04 3.25-10.03z" stroke="#5e5e5e" stroke-width=".05" fill="#5e5e5e"/><use xlink:href="#Q" transform="matrix(1,0,0,1,452.8888888888895,586.7751616200248) translate(0.0049999999999954525 18.133333333333333)"/><use xlink:href="#R" transform="matrix(1,0,0,1,452.8888888888895,586.7751616200248) translate(42.67166666666666 18.133333333333333)"/><use xlink:href="#S" transform="matrix(1,0,0,1,452.8888888888895,586.7751616200248) translate(85.33833333333332 18.133333333333333)"/><path d="M1384.7 896.25a2.1 2.1 0 0 0 1.3 3.75h288a2.1 2.1 0 0 0 1.3-3.75l-140.6-112.5a7.5 7.5 0 0 0-9.4 0z" stroke="#5e5e5e" stroke-width="3" fill="#fff"/><use xlink:href="#T" transform="matrix(1,0,0,1,1385,785) translate(105.00500000000001 62.00999999999999)"/><use xlink:href="#U" transform="matrix(1,0,0,1,1385,785) translate(105.00500000000002 106.00999999999998)"/><path d="M1531 779.6h-2V599.8h2zm-5.94-262.28l1.1.26 1.02.43.94.58.83.7.72.85.57.94.42 1 .26 1.08.08 1.06v52.12h-2v-52.04l-.06-.82-.2-.76-.3-.72-.4-.67-.5-.6-.6-.5-.67-.4-.73-.3-.72-.18-449.78-.07v-2z" stroke="#5e5e5e" stroke-width=".05" fill="#5e5e5e"/><path d="M1531 780.67l-1-.07-1 .07v-1.1h2z" fill="#5e5e5e"/><path d="M1531.02 780.7l-1.02-.07-1.03.07v-1.15h2.05zm-2-1.1v1.04l.98-.06.97.06v-1.04z" stroke="#5e5e5e" stroke-width=".05" fill="#5e5e5e"/><path d="M1074.04 522.88l-14.26-4.63 14.26-4.64z" fill="#5e5e5e"/><path d="M1075.04 524.26l-18.5-6 18.5-6.03zm-12.03-6l10.04 3.24V515z" stroke="#5e5e5e" stroke-width=".05" fill="#5e5e5e"/><g><use xlink:href="#V" transform="matrix(1,0,0,1,1396.6666261030707,576.3208167445467) translate(0.0049999999999954525 18.133333333333333)"/><use xlink:href="#W" transform="matrix(1,0,0,1,1396.6666261030707,576.3208167445467) translate(42.67166666666666 18.133333333333333)"/><use xlink:href="#s" transform="matrix(1,0,0,1,1396.6666261030707,576.3208167445467) translate(128.005 18.133333333333333)"/><use xlink:href="#t" transform="matrix(1,0,0,1,1396.6666261030707,576.3208167445467) translate(160.005 18.133333333333333)"/></g><path d="M1121.67 311.12h-83.88l-.73.18-.72.3-.67.4-.6.52-.5.6-.42.66-.3.73-.18.77-.07.82V457.6h-2v-141.6l.1-1.06.25-1.07.42-1.03.58-.93.7-.84.85-.7.94-.6 1-.4 1.12-.27h84.1zM1601.34 180l-.08 125.1-.26 1.12-.42 1-.58.95-.7.84-.85.72-.93.57-1.02.4-1.07.27-1.05.08-216.7.03v-2l216.62-.03.82-.06.76-.2.73-.3.67-.4.6-.5.5-.6.42-.68.3-.72.16-.73.08-124.9z" stroke="#5e5e5e" stroke-width=".05" fill="#5e5e5e"/><path d="M1033.6 459.26l-1-.64-1-.57v-.45h2z" fill="#5e5e5e"/><path d="M1033.64 459.3l-1.04-.66-1-.58v-.5h2.04zm-2-1.68v.4l1 .58.95.62v-1.6z" stroke="#5e5e5e" stroke-width=".05" fill="#5e5e5e"/><path d="M1604.97 178.98h-9.27l4.64-14.26z" fill="#5e5e5e"/><path d="M1606.35 179.98h-12.02l6-18.5zm-9.27-2h6.52l-3.26-10.02z" stroke="#5e5e5e" stroke-width=".05" fill="#5e5e5e"/><g><use xlink:href="#X" transform="matrix(1,0,0,1,1121.6666666666679,298.31987290029974) translate(0.0049999999999954525 18.133333333333333)"/><use xlink:href="#Y" transform="matrix(1,0,0,1,1121.6666666666679,298.31987290029974) translate(42.67166666666666 18.133333333333333)"/><use xlink:href="#t" transform="matrix(1,0,0,1,1121.6666666666679,298.31987290029974) translate(149.33833333333334 18.133333333333333)"/></g><path d="M968 57.62l1.05.26 1.02.42.94.57.84.7.72.85.57.94.42 1 .27 1.12.07 357.86h-2l-.08-357.62-.18-.73-.3-.73-.4-.67-.52-.6-.6-.5-.66-.42-.73-.3-.76-.18-.82-.06-294.63.03v-2l294.7-.03zM544.2 59.58l-239.04.03-.72.18-.73.3-.67.4-.6.52-.5.6-.4.67-.3.72-.2.76-.06.82v32.96h-2V64.5l.08-1.06.26-1.07.42-1 .57-.95.72-.84.83-.7.94-.58 1.02-.42 1.1-.27 239.28-.02z" stroke="#5e5e5e" stroke-width=".05" fill="#5e5e5e"/><path d="M301 98.54h-2V97.5h2z" fill="#5e5e5e"/><path d="M301.02 98.56h-2.04V97.5h2.04zm-2-1.02v.97h1.96v-.96z" stroke="#5e5e5e" stroke-width=".05" fill="#5e5e5e"/><path d="M972.9 436.6l-4.65-14.26h9.28z" fill="#5e5e5e"/><path d="M972.9 439.84l-6.02-18.5h12.02zm-3.27-16.5l3.26 10.03 3.25-10.03z" stroke="#5e5e5e" stroke-width=".05" fill="#5e5e5e"/><g><use xlink:href="#I" transform="matrix(1,0,0,1,544.2222222222231,46.80341095179436) translate(0.0049999999999954525 18.133333333333333)"/><use xlink:href="#J" transform="matrix(1,0,0,1,544.2222222222231,46.80341095179436) translate(42.67166666666666 18.133333333333333)"/></g><path d="M965.06 19.07l1.1.27 1.02.42.94.57.83.72.72.83.57.94.42 1.02.26 1.06.08 1.06-.07 385.6-.27 1.1-.42 1.02-.57.94-.72.83-.83.72-.94.57-1.02.42-1.06.26-1.06.08-8.86.07-.72.18-.73.3-.67.4-.6.52-.5.6-.4.66-.3.73-.2.76-.06.82v14.96h-2v-15.04l.08-1.06.26-1.06.42-1.02.57-.94.72-.83.83-.72.94-.57 1.02-.42 1.1-.27 9.02-.07.82-.06.76-.2.73-.3.67-.4.6-.5.5-.6.4-.67.3-.73.2-.72.06-385.28-.06-.82-.2-.76-.3-.73-.4-.67-.5-.6-.6-.5-.67-.4-.73-.3-.72-.2h-252.6v-2zm-455.5-.05v2L306.04 21l-.82.06-.76.2-.73.3-.67.4-.6.5-.5.6-.4.67-.3.73-.2.72-.06 54.86h-2l.07-55.1.27-1.1.42-1.02.57-.94.72-.83.83-.72.94-.57 1.02-.42 1.06-.26 1.06-.08z" stroke="#5e5e5e" stroke-width=".05" fill="#5e5e5e"/><path d="M951 438.52l-1-.02h-1v-1.03h2z" fill="#5e5e5e"/><path d="M951.02 438.55l-1-.03-1.04.02v-1.1H951zm-2-1.05v1l1-.03.96.03v-1z" stroke="#5e5e5e" stroke-width=".05" fill="#5e5e5e"/><path d="M300 95.3l-4.64-14.27h9.28z" fill="#5e5e5e"/><path d="M300 98.54l-6-18.5h12zm-3.26-16.5L300 92.05l3.26-10.03z" stroke="#5e5e5e" stroke-width=".05" fill="#5e5e5e"/><g><use xlink:href="#K" transform="matrix(1,0,0,1,509.5555555555564,8.266666666666667) translate(0.0049999999999954525 18.133333333333333)"/><use xlink:href="#Z" transform="matrix(1,0,0,1,509.5555555555564,8.266666666666667) translate(42.67166666666666 18.133333333333333)"/><use xlink:href="#aa" transform="matrix(1,0,0,1,509.5555555555564,8.266666666666667) translate(117.33833333333331 18.133333333333333)"/></g><path d="M869.95 189l1.05.08 1.07.26 1.02.42.92.57.84.72.7.83.6.94.4 1.02.27 1.1.08 240.57h-2l-.07-240.32-.17-.72-.3-.73-.4-.67-.52-.6-.6-.5-.66-.4-.73-.3-.76-.2-.83-.06-283.72-.05v-2zm-469.12-29.25l1.07.26 1.02.43.93.57.84.72.7.83.58.94.42 1 .26 1.1.08 18.36.06.82.18.76.3.73.4.67.52.6.6.5.67.4.72.3.72.2h111.23v2H410.68l-1.1-.28-1.02-.42-.94-.57-.84-.72-.7-.83-.58-.94-.42-1.02-.26-1.06-.08-1.06-.08-18.2-.17-.72-.3-.72-.42-.67-.5-.6-.6-.5-.68-.4-.72-.3-.76-.2-.82-.06h-17.23v-2h17.3z" stroke="#5e5e5e" stroke-width=".05" fill="#5e5e5e"/><path d="M382.5 161.67h-1.03v-2h1.03z" fill="#5e5e5e"/><path d="M382.52 161.7h-1.07v-2.06h1.07zm-1.02-2v1.94h.97v-1.95z" stroke="#5e5e5e" stroke-width=".05" fill="#5e5e5e"/><path d="M875.9 450.78l-4.63-14.27h9.27z" fill="#5e5e5e"/><path d="M875.9 454l-6-18.5h12.02zm-3.25-16.5l3.26 10.04 3.27-10.03z" stroke="#5e5e5e" stroke-width=".05" fill="#5e5e5e"/><g><use xlink:href="#ab" transform="matrix(1,0,0,1,522.1453090925447,178.26666666666668) translate(0.005000000000002558 18.133333333333333)"/><use xlink:href="#ac" transform="matrix(1,0,0,1,522.1453090925447,178.26666666666668) translate(42.67166666666667 18.133333333333333)"/></g><path d="M870.96 329.07l1.1.27 1.03.42.92.57.84.72.7.83.6.94.4 1.02.26 1.06.1 1.06V453h-2V336.05l-.08-.82-.18-.76-.3-.73-.4-.67-.52-.6-.6-.5-.66-.4-.73-.3-.72-.2-269.84-.02v-2zm-569.9-4.25l.2.72.3.73.4.67.5.6.6.5.67.4.73.3.76.2.82.06h113.5v2H305.97l-1.06-.08-1.06-.26-1.02-.42-.94-.57-.83-.72-.72-.83-.57-.94-.42-1.02-.27-1.1-.07-105.1h2z" stroke="#5e5e5e" stroke-width=".05" fill="#5e5e5e"/><path d="M876.9 453.52l-2 .98V453h2z" fill="#5e5e5e"/><path d="M876.93 453.54l-2.05 1v-1.58h2.05zm-2-.53v1.46l1.95-.95v-.5z" stroke="#5e5e5e" stroke-width=".05" fill="#5e5e5e"/><path d="M304.64 218.97h-9.28L300 204.7z" fill="#5e5e5e"/><path d="M306 219.97h-12l6-18.5zm-9.26-2h6.52L300 207.94z" stroke="#5e5e5e" stroke-width=".05" fill="#5e5e5e"/><g><use xlink:href="#ad" transform="matrix(1,0,0,1,419.5528085043336,318.26666666666665) translate(0.0049999999999954525 18.133333333333333)"/><use xlink:href="#ae" transform="matrix(1,0,0,1,419.5528085043336,318.26666666666665) translate(42.67166666666666 18.133333333333333)"/><use xlink:href="#af" transform="matrix(1,0,0,1,419.5528085043336,318.26666666666665) translate(106.67166666666665 18.133333333333333)"/></g><defs><path fill="#333" d="M527-203c2 131-91 213-223 213C171 10 80-72 80-203v-324c-2-132 91-215 224-213 132-2 225 82 223 213H419c1-74-42-117-115-117s-117 42-116 116v325c-1 75 42 117 116 117 73 0 116-43 115-117h108" id="ag"/><path fill="#333" d="M322-167c-1 42 26 69 67 69h166V0H385C284 2 214-66 214-167v-465H29v-98h293v563" id="ah"/><path fill="#333" d="M81 0v-98h193v-354H106v-98h273v452h178V0H81zm313-713c0 43-33 69-77 68-44 1-77-25-77-68s33-70 77-69c44-1 77 25 77 69" id="ai"/><path fill="#333" d="M520-143C505-49 412 12 300 10 164 7 78-68 78-203v-144c3-135 86-213 222-213 137 0 219 78 223 213v98H182c-9 106 22 174 119 171 65 0 102-22 112-65h107zM300-474c-87 0-124 58-118 152l236-1c6-94-31-152-118-151" id="aj"/><path fill="#333" d="M302-466c-70 0-110 46-110 119V0H84v-550h107c1 35-1 72 1 105 10-71 64-116 146-115 111-1 180 80 180 194V0H410v-354c1-70-40-112-108-112" id="ak"/><path fill="#333" d="M360 0c-99 1-160-58-159-156v-296H49v-98h152v-155h108v155h216v98H309v296c-4 93 129 47 206 58V0H360" id="al"/><g id="a"><use transform="matrix(0.03333333333333332,0,0,0.03333333333333332,0,0)" xlink:href="#ag"/><use transform="matrix(0.03333333333333332,0,0,0.03333333333333332,19.999999999999993,0)" xlink:href="#ah"/><use transform="matrix(0.03333333333333332,0,0,0.03333333333333332,39.999999999999986,0)" xlink:href="#ai"/><use transform="matrix(0.03333333333333332,0,0,0.03333333333333332,59.99999999999998,0)" xlink:href="#aj"/><use transform="matrix(0.03333333333333332,0,0,0.03333333333333332,79.99999999999997,0)" xlink:href="#ak"/><use transform="matrix(0.03333333333333332,0,0,0.03333333333333332,99.99999999999997,0)" xlink:href="#al"/><use transform="matrix(0.03333333333333332,0,0,0.03333333333333332,119.99999999999999,0)" xlink:href="#aj"/></g><path fill="#333" d="M536-195C536-61 440 7 303 10 165 12 66-62 65-193h108c0 71 55 108 131 107 72 1 124-36 124-105 0-102-98-116-178-139-97-26-168-97-168-211 0-131 89-198 222-200 127-3 222 77 222 199H418c0-67-46-104-116-103-67-1-112 33-112 97-2 104 98 117 179 140 96 28 167 98 167 213" id="am"/><path fill="#333" d="M523-204C524-73 433 9 300 9S78-73 78-204v-142c-1-131 89-213 222-213s223 82 223 213v142zm-337 0c-1 74 41 118 114 118s116-44 115-118v-142c1-74-42-118-115-118s-115 44-114 118v142" id="an"/><path fill="#333" d="M526-185C523-64 431 12 304 10 171 12 78-71 78-203v-144c-2-132 93-215 226-213 127-2 219 73 222 194H418c-3-63-47-100-114-99-73 0-119 43-118 117v145c-1 75 45 118 118 118 67 0 111-36 114-100h108" id="ao"/><g id="b"><use transform="matrix(0.03333333333333332,0,0,0.03333333333333332,0,0)" xlink:href="#am"/><use transform="matrix(0.03333333333333332,0,0,0.03333333333333332,19.999999999999993,0)" xlink:href="#an"/><use transform="matrix(0.03333333333333332,0,0,0.03333333333333332,39.999999999999986,0)" xlink:href="#ao"/><use transform="matrix(0.03333333333333332,0,0,0.03333333333333332,59.99999999999998,0)" xlink:href="#ai"/><use transform="matrix(0.03333333333333332,0,0,0.03333333333333332,79.99999999999997,0)" xlink:href="#an"/></g><path fill="#333" d="M529-158C529-28 428 9 281 9 170 9 85-45 78-143h108c8 54 70 60 138 60 57 0 94-22 99-72 6-65-94-76-160-86-105-15-171-49-171-159 0-122 96-159 234-159 107 0 186 53 196 145H414c-8-48-64-54-126-54-57 0-89 18-90 69-2 73 89 65 151 77 108 21 180 50 180 164" id="ap"/><path fill="#333" d="M393-479c-35 0-53 26-52 64V0h-81v-414c0-43-18-65-53-65-34 0-51 21-51 64V0H59v-550h91v70h5c7-46 38-80 90-80 51 1 80 35 90 80h4c7-46 42-80 93-80 71 0 110 65 110 141V0h-97v-414c0-38-16-65-52-65" id="aq"/><path fill="#333" d="M411-101C400-29 331 11 245 10 136 12 59-50 60-156c0-109 83-167 197-167h153c11-92-23-148-107-146-56-1-102 25-110 71H87c11-100 104-162 219-162 122 0 212 67 212 184V0H413c-1-33 3-71-2-101zm-243-63c0 60 46 92 109 91 70 2 133-39 133-105v-72H259c-54-1-92 32-91 86" id="ar"/><g id="c"><use transform="matrix(0.03333333333333332,0,0,0.03333333333333332,0,0)" xlink:href="#am"/><use transform="matrix(0.03333333333333332,0,0,0.03333333333333332,19.999999999999993,0)" xlink:href="#ai"/><use transform="matrix(0.03333333333333332,0,0,0.03333333333333332,39.999999999999986,0)" xlink:href="#ap"/><use transform="matrix(0.03333333333333332,0,0,0.03333333333333332,59.99999999999998,0)" xlink:href="#al"/><use transform="matrix(0.03333333333333332,0,0,0.03333333333333332,79.99999999999997,0)" xlink:href="#aj"/><use transform="matrix(0.03333333333333332,0,0,0.03333333333333332,99.99999999999997,0)" xlink:href="#aq"/><use transform="matrix(0.03333333333333332,0,0,0.03333333333333332,119.99999999999999,0)" xlink:href="#ar"/></g><path fill="#333" d="M246 0v-631H51v-99h499v99H354V0H246" id="as"/><g id="d"><use transform="matrix(0.03333333333333332,0,0,0.03333333333333332,0,0)" xlink:href="#as"/><use transform="matrix(0.03333333333333332,0,0,0.03333333333333332,19.999999999999993,0)" xlink:href="#aj"/><use transform="matrix(0.03333333333333332,0,0,0.03333333333333332,39.999999999999986,0)" xlink:href="#ao"/><use transform="matrix(0.03333333333333332,0,0,0.03333333333333332,59.99999999999998,0)" xlink:href="#ak"/><use transform="matrix(0.03333333333333332,0,0,0.03333333333333332,79.99999999999997,0)" xlink:href="#ai"/><use transform="matrix(0.03333333333333332,0,0,0.03333333333333332,99.99999999999997,0)" xlink:href="#ao"/><use transform="matrix(0.03333333333333332,0,0,0.03333333333333332,119.99999999999999,0)" xlink:href="#an"/></g><path fill="#333" d="M87 0v-96h194v-540L86-491v-117l167-122h136v634h157V0H87" id="at"/><path fill="#333" d="M388-77c1 53-34 88-88 87-54 1-89-34-88-87-1-54 34-91 88-90 54-1 89 36 88 90" id="au"/><path fill="#333" d="M299-740c130 0 226 82 221 210-5 127-62 182-143 265L214-98h317V0H85v-102l226-238c53-59 97-98 101-184 4-72-43-121-114-120-76-1-126 49-125 125H65c2-133 96-221 234-221" id="av"/><g id="e"><use transform="matrix(0.017777777777777778,0,0,0.017777777777777778,0,0)" xlink:href="#at"/><use transform="matrix(0.017777777777777778,0,0,0.017777777777777778,10.666666666666666,0)" xlink:href="#au"/><use transform="matrix(0.017777777777777778,0,0,0.017777777777777778,21.333333333333332,0)" xlink:href="#av"/></g><path fill="#333" d="M171-607c17 189 9 403 11 607H81v-730h137l212 607c-18-188-9-403-11-607h100V0H383" id="aw"/><g id="f"><use transform="matrix(0.017777777777777778,0,0,0.017777777777777778,0,0)" xlink:href="#aw"/><use transform="matrix(0.017777777777777778,0,0,0.017777777777777778,10.666666666666666,0)" xlink:href="#an"/></g><path fill="#333" d="M519-253c0 171-72 263-228 263C154 10 69-65 65-200h108c-1 73 46 117 119 116 94 1 119-65 119-168 0-74-45-118-119-117h-82v-90l168-176H96v-95h399v94L325-462c113 10 194 88 194 209" id="ax"/><g id="g"><use transform="matrix(0.017777777777777778,0,0,0.017777777777777778,0,0)" xlink:href="#at"/><use transform="matrix(0.017777777777777778,0,0,0.017777777777777778,10.666666666666666,0)" xlink:href="#au"/><use transform="matrix(0.017777777777777778,0,0,0.017777777777777778,21.333333333333332,0)" xlink:href="#ax"/></g><path fill="#333" d="M524-225C520-81 432 0 287 0H83v-730h204c145 2 237 81 237 223v282zM416-507c1-77-51-125-129-125h-96v534h96c79 1 130-48 129-127v-282" id="ay"/><path fill="#333" d="M229 0L47-550h113c47 155 103 301 142 464 42-159 95-310 141-464h110L371 0H229" id="az"/><path fill="#333" d="M518-204c2 131-88 216-219 214C168 12 82-73 82-204v-346h108v345c-1 73 38 121 109 121s111-47 111-121v-345h108v346" id="aA"/><g id="h"><use transform="matrix(0.017777777777777778,0,0,0.017777777777777778,0,0)" xlink:href="#ay"/><use transform="matrix(0.017777777777777778,0,0,0.017777777777777778,10.666666666666666,0)" xlink:href="#aj"/><use transform="matrix(0.017777777777777778,0,0,0.017777777777777778,21.333333333333332,0)" xlink:href="#az"/><use transform="matrix(0.017777777777777778,0,0,0.017777777777777778,32,0)" xlink:href="#aA"/><use transform="matrix(0.017777777777777778,0,0,0.017777777777777778,42.666666666666664,0)" xlink:href="#aj"/><use transform="matrix(0.017777777777777778,0,0,0.017777777777777778,53.33333333333333,0)" xlink:href="#ah"/><use transform="matrix(0.017777777777777778,0,0,0.017777777777777778,63.99999999999999,0)" xlink:href="#az"/><use transform="matrix(0.017777777777777778,0,0,0.017777777777777778,74.66666666666666,0)" xlink:href="#aj"/></g><g id="i"><use transform="matrix(0.017777777777777778,0,0,0.017777777777777778,0,0)" xlink:href="#aj"/><use transform="matrix(0.017777777777777778,0,0,0.017777777777777778,10.666666666666666,0)" xlink:href="#ah"/></g><path fill="#333" d="M409-105C398-36 343 11 261 10 146 10 78-77 78-197v-155c-2-120 67-209 183-208 80-1 138 45 147 115h3c-3-93-3-189-3-285h108V0H409v-105zm-223-98c-1 75 40 119 112 119 70 0 110-46 110-119v-144c1-72-41-119-110-119-72 0-113 45-112 119v144" id="aB"/><path fill="#333" d="M340 10c-80 1-139-44-147-115h-4c3 93 3 189 3 285H84v-730h107c1 35-1 72 1 105 9-71 67-116 148-115 114-1 183 88 183 207v155c2 120-68 209-183 208zM192-203c-1 72 42 119 111 119 72 0 113-44 112-119v-144c1-75-40-119-112-119-69 0-111 47-111 119v144" id="aC"/><g id="j"><use transform="matrix(0.017777777777777778,0,0,0.017777777777777778,0,0)" xlink:href="#aB"/><use transform="matrix(0.017777777777777778,0,0,0.017777777777777778,10.666666666666666,0)" xlink:href="#ai"/><use transform="matrix(0.017777777777777778,0,0,0.017777777777777778,21.333333333333332,0)" xlink:href="#ap"/><use transform="matrix(0.017777777777777778,0,0,0.017777777777777778,32,0)" xlink:href="#aC"/><use transform="matrix(0.017777777777777778,0,0,0.017777777777777778,42.666666666666664,0)" xlink:href="#an"/><use transform="matrix(0.017777777777777778,0,0,0.017777777777777778,53.33333333333333,0)" xlink:href="#ap"/><use transform="matrix(0.017777777777777778,0,0,0.017777777777777778,63.99999999999999,0)" xlink:href="#ai"/><use transform="matrix(0.017777777777777778,0,0,0.017777777777777778,74.66666666666666,0)" xlink:href="#al"/><use transform="matrix(0.017777777777777778,0,0,0.017777777777777778,85.33333333333333,0)" xlink:href="#ai"/><use transform="matrix(0.017777777777777778,0,0,0.017777777777777778,96,0)" xlink:href="#az"/><use transform="matrix(0.017777777777777778,0,0,0.017777777777777778,106.66666666666667,0)" xlink:href="#an"/></g><path fill="#333" d="M542-227C542-79 449 7 301 10 118 14 12-148 76-327c52-145 147-270 218-403h117L211-390l5 4c24-37 69-62 128-62 128 4 198 90 198 221zm-377 2c-2 82 55 142 135 141 80 1 137-59 135-141 2-81-55-143-135-142-80-1-137 61-135 142" id="aD"/><g id="k"><use transform="matrix(0.017777777777777778,0,0,0.017777777777777778,0,0)" xlink:href="#at"/><use transform="matrix(0.017777777777777778,0,0,0.017777777777777778,10.666666666666666,0)" xlink:href="#au"/><use transform="matrix(0.017777777777777778,0,0,0.017777777777777778,21.333333333333332,0)" xlink:href="#aD"/></g><g id="l"><use transform="matrix(0.017777777777777778,0,0,0.017777777777777778,0,0)" xlink:href="#ay"/><use transform="matrix(0.017777777777777778,0,0,0.017777777777777778,10.666666666666666,0)" xlink:href="#ai"/><use transform="matrix(0.017777777777777778,0,0,0.017777777777777778,21.333333333333332,0)" xlink:href="#ap"/><use transform="matrix(0.017777777777777778,0,0,0.017777777777777778,32,0)" xlink:href="#aC"/><use transform="matrix(0.017777777777777778,0,0,0.017777777777777778,42.666666666666664,0)" xlink:href="#an"/><use transform="matrix(0.017777777777777778,0,0,0.017777777777777778,53.33333333333333,0)" xlink:href="#ap"/><use transform="matrix(0.017777777777777778,0,0,0.017777777777777778,63.99999999999999,0)" xlink:href="#ai"/><use transform="matrix(0.017777777777777778,0,0,0.017777777777777778,74.66666666666666,0)" xlink:href="#al"/><use transform="matrix(0.017777777777777778,0,0,0.017777777777777778,85.33333333333333,0)" xlink:href="#ai"/><use transform="matrix(0.017777777777777778,0,0,0.017777777777777778,96,0)" xlink:href="#az"/><use transform="matrix(0.017777777777777778,0,0,0.017777777777777778,106.66666666666667,0)" xlink:href="#an"/></g><use transform="matrix(0.017777777777777778,0,0,0.017777777777777778,0,0)" xlink:href="#ar" id="m"/><path fill="#333" d="M322-469c-72 0-113 48-112 122V0H102v-550h104v102c17-75 67-112 148-112 132 0 203 96 191 241H434c7-91-29-150-112-150" id="aE"/><g id="n"><use transform="matrix(0.017777777777777778,0,0,0.017777777777777778,0,0)" xlink:href="#aE"/><use transform="matrix(0.017777777777777778,0,0,0.017777777777777778,10.666666666666666,0)" xlink:href="#aj"/><use transform="matrix(0.017777777777777778,0,0,0.017777777777777778,21.333333333333332,0)" xlink:href="#aC"/><use transform="matrix(0.017777777777777778,0,0,0.017777777777777778,32,0)" xlink:href="#ar"/><use transform="matrix(0.017777777777777778,0,0,0.017777777777777778,42.666666666666664,0)" xlink:href="#aE"/><use transform="matrix(0.017777777777777778,0,0,0.017777777777777778,53.33333333333333,0)" xlink:href="#ar"/><use transform="matrix(0.017777777777777778,0,0,0.017777777777777778,63.99999999999999,0)" xlink:href="#aE"/></g><path fill="#333" d="M526-207C522-69 439 7 300 10 166 12 74-75 74-207v-317c-1-131 92-216 226-216s226 85 226 216v317zm-349 0c-1 73 50 125 123 124 74 1 123-51 123-124v-317c1-72-50-124-123-123-73-1-123 51-123 123v317zm186-161c1 37-26 66-63 65-37 1-64-28-63-65-1-37 26-64 63-63 37-1 64 26 63 63" id="aF"/><g id="o"><use transform="matrix(0.017777777777777778,0,0,0.017777777777777778,0,0)" xlink:href="#av"/><use transform="matrix(0.017777777777777778,0,0,0.017777777777777778,10.666666666666666,0)" xlink:href="#au"/><use transform="matrix(0.017777777777777778,0,0,0.017777777777777778,21.333333333333332,0)" xlink:href="#aF"/></g><g id="p"><use transform="matrix(0.017777777777777778,0,0,0.017777777777777778,0,0)" xlink:href="#aw"/><use transform="matrix(0.017777777777777778,0,0,0.017777777777777778,10.666666666666666,0)" xlink:href="#an"/></g><path fill="#333" d="M302-468c-70 0-110 49-110 121V0H84v-730h108c1 95-1 193 0 285 10-72 63-115 146-115 111-1 180 80 180 194V0H410v-354c1-69-40-114-108-114" id="aG"/><path fill="#333" d="M172 180l79-212L46-550h119c47 135 104 259 141 404 35-144 89-269 133-404h115L286 180H172" id="aH"/><g id="q"><use transform="matrix(0.017777777777777778,0,0,0.017777777777777778,0,0)" xlink:href="#aG"/><use transform="matrix(0.017777777777777778,0,0,0.017777777777777778,10.666666666666666,0)" xlink:href="#ar"/><use transform="matrix(0.017777777777777778,0,0,0.017777777777777778,21.333333333333332,0)" xlink:href="#aH"/></g><path fill="#333" d="M87 0v-730h108v401h97l146-221h122L385-286 563 0H439L292-236h-97V0H87" id="aI"/><g id="r"><use transform="matrix(0.017777777777777778,0,0,0.017777777777777778,0,0)" xlink:href="#am"/><use transform="matrix(0.017777777777777778,0,0,0.017777777777777778,10.666666666666666,0)" xlink:href="#al"/><use transform="matrix(0.017777777777777778,0,0,0.017777777777777778,21.333333333333332,0)" xlink:href="#an"/><use transform="matrix(0.017777777777777778,0,0,0.017777777777777778,32,0)" xlink:href="#ao"/><use transform="matrix(0.017777777777777778,0,0,0.017777777777777778,42.666666666666664,0)" xlink:href="#aI"/></g><g id="s"><use transform="matrix(0.017777777777777778,0,0,0.017777777777777778,0,0)" xlink:href="#aB"/><use transform="matrix(0.017777777777777778,0,0,0.017777777777777778,10.666666666666666,0)" xlink:href="#aj"/></g><g id="t"><use transform="matrix(0.017777777777777778,0,0,0.017777777777777778,0,0)" xlink:href="#aq"/><use transform="matrix(0.017777777777777778,0,0,0.017777777777777778,10.666666666666666,0)" xlink:href="#ar"/><use transform="matrix(0.017777777777777778,0,0,0.017777777777777778,21.333333333333332,0)" xlink:href="#al"/><use transform="matrix(0.017777777777777778,0,0,0.017777777777777778,32,0)" xlink:href="#aj"/><use transform="matrix(0.017777777777777778,0,0,0.017777777777777778,42.666666666666664,0)" xlink:href="#aE"/><use transform="matrix(0.017777777777777778,0,0,0.017777777777777778,53.33333333333333,0)" xlink:href="#ai"/><use transform="matrix(0.017777777777777778,0,0,0.017777777777777778,63.99999999999999,0)" xlink:href="#ar"/><use transform="matrix(0.017777777777777778,0,0,0.017777777777777778,74.66666666666666,0)" xlink:href="#ah"/><use transform="matrix(0.017777777777777778,0,0,0.017777777777777778,85.33333333333333,0)" xlink:href="#aj"/><use transform="matrix(0.017777777777777778,0,0,0.017777777777777778,96,0)" xlink:href="#ap"/></g><path fill="#333" d="M556-510c0 141-90 217-233 220H192V0H84v-730h239c143 3 233 78 233 220zm-110 0c1-74-49-123-123-123H192v246h131c74 1 124-50 123-123" id="aJ"/><g id="u"><use transform="matrix(0.03333333333333332,0,0,0.03333333333333332,0,0)" xlink:href="#aJ"/><use transform="matrix(0.03333333333333332,0,0,0.03333333333333332,19.999999999999993,0)" xlink:href="#aE"/><use transform="matrix(0.03333333333333332,0,0,0.03333333333333332,39.999999999999986,0)" xlink:href="#an"/><use transform="matrix(0.03333333333333332,0,0,0.03333333333333332,59.99999999999998,0)" xlink:href="#az"/><use transform="matrix(0.03333333333333332,0,0,0.03333333333333332,79.99999999999997,0)" xlink:href="#aj"/><use transform="matrix(0.03333333333333332,0,0,0.03333333333333332,99.99999999999997,0)" xlink:href="#aj"/><use transform="matrix(0.03333333333333332,0,0,0.03333333333333332,119.99999999999999,0)" xlink:href="#aB"/><use transform="matrix(0.03333333333333332,0,0,0.03333333333333332,139.99999999999997,0)" xlink:href="#an"/><use transform="matrix(0.03333333333333332,0,0,0.03333333333333332,159.99999999999997,0)" xlink:href="#aE"/></g><g id="v"><use transform="matrix(0.017777777777777778,0,0,0.017777777777777778,0,0)" xlink:href="#av"/><use transform="matrix(0.017777777777777778,0,0,0.017777777777777778,10.666666666666666,0)" xlink:href="#au"/><use transform="matrix(0.017777777777777778,0,0,0.017777777777777778,21.333333333333332,0)" xlink:href="#at"/></g><g id="w"><use transform="matrix(0.017777777777777778,0,0,0.017777777777777778,0,0)" xlink:href="#ag"/><use transform="matrix(0.017777777777777778,0,0,0.017777777777777778,10.666666666666666,0)" xlink:href="#an"/><use transform="matrix(0.017777777777777778,0,0,0.017777777777777778,21.333333333333332,0)" xlink:href="#aq"/><use transform="matrix(0.017777777777777778,0,0,0.017777777777777778,32,0)" xlink:href="#aC"/><use transform="matrix(0.017777777777777778,0,0,0.017777777777777778,42.666666666666664,0)" xlink:href="#aE"/><use transform="matrix(0.017777777777777778,0,0,0.017777777777777778,53.33333333333333,0)" xlink:href="#ar"/><use transform="matrix(0.017777777777777778,0,0,0.017777777777777778,63.99999999999999,0)" xlink:href="#aE"/></g><g id="x"><use transform="matrix(0.03333333333333332,0,0,0.03333333333333332,0,0)" xlink:href="#ak"/><use transform="matrix(0.03333333333333332,0,0,0.03333333333333332,19.999999999999993,0)" xlink:href="#an"/></g><g id="y"><use transform="matrix(0.03333333333333332,0,0,0.03333333333333332,0,0)" xlink:href="#ap"/><use transform="matrix(0.03333333333333332,0,0,0.03333333333333332,19.999999999999993,0)" xlink:href="#an"/><use transform="matrix(0.03333333333333332,0,0,0.03333333333333332,39.999999999999986,0)" xlink:href="#ao"/><use transform="matrix(0.03333333333333332,0,0,0.03333333333333332,59.99999999999998,0)" xlink:href="#ai"/><use transform="matrix(0.03333333333333332,0,0,0.03333333333333332,79.99999999999997,0)" xlink:href="#an"/></g><g id="z"><use transform="matrix(0.017777777777777778,0,0,0.017777777777777778,0,0)" xlink:href="#ax"/><use transform="matrix(0.017777777777777778,0,0,0.017777777777777778,10.666666666666666,0)" xlink:href="#au"/><use transform="matrix(0.017777777777777778,0,0,0.017777777777777778,21.333333333333332,0)" xlink:href="#aF"/></g><path fill="#333" d="M98 0v-96h147v-538H98v-96h405v96H355v538h148V0H98" id="aK"/><path fill="#333" d="M515 10c1 108-77 170-189 170H156V87c100-9 259 37 252-79-3-53 4-109 0-157-8 71-65 116-145 115-117 1-185-87-183-208v-111c-2-120 66-208 183-207 81-1 136 45 146 115l-1-105h107V10zM188-247c-1 74 37 120 110 120 70 0 110-48 110-120v-100c1-72-41-119-110-119-72 0-111 45-110 119v100" id="aL"/><g id="A"><use transform="matrix(0.017777777777777778,0,0,0.017777777777777778,0,0)" xlink:href="#aK"/><use transform="matrix(0.017777777777777778,0,0,0.017777777777777778,10.666666666666666,0)" xlink:href="#ak"/><use transform="matrix(0.017777777777777778,0,0,0.017777777777777778,21.333333333333332,0)" xlink:href="#aL"/><use transform="matrix(0.017777777777777778,0,0,0.017777777777777778,32,0)" xlink:href="#aE"/><use transform="matrix(0.017777777777777778,0,0,0.017777777777777778,42.666666666666664,0)" xlink:href="#aj"/><use transform="matrix(0.017777777777777778,0,0,0.017777777777777778,53.33333333333333,0)" xlink:href="#ap"/><use transform="matrix(0.017777777777777778,0,0,0.017777777777777778,63.99999999999999,0)" xlink:href="#ar"/></g><g id="B"><use transform="matrix(0.017777777777777778,0,0,0.017777777777777778,0,0)" xlink:href="#ar"/><use transform="matrix(0.017777777777777778,0,0,0.017777777777777778,10.666666666666666,0)" xlink:href="#ah"/></g><g id="C"><use transform="matrix(0.017777777777777778,0,0,0.017777777777777778,0,0)" xlink:href="#ap"/><use transform="matrix(0.017777777777777778,0,0,0.017777777777777778,10.666666666666666,0)" xlink:href="#ai"/><use transform="matrix(0.017777777777777778,0,0,0.017777777777777778,21.333333333333332,0)" xlink:href="#ap"/><use transform="matrix(0.017777777777777778,0,0,0.017777777777777778,32,0)" xlink:href="#al"/><use transform="matrix(0.017777777777777778,0,0,0.017777777777777778,42.666666666666664,0)" xlink:href="#aj"/><use transform="matrix(0.017777777777777778,0,0,0.017777777777777778,53.33333333333333,0)" xlink:href="#aq"/><use transform="matrix(0.017777777777777778,0,0,0.017777777777777778,63.99999999999999,0)" xlink:href="#ar"/></g><g id="D"><use transform="matrix(0.017777777777777778,0,0,0.017777777777777778,0,0)" xlink:href="#aC"/><use transform="matrix(0.017777777777777778,0,0,0.017777777777777778,10.666666666666666,0)" xlink:href="#an"/><use transform="matrix(0.017777777777777778,0,0,0.017777777777777778,21.333333333333332,0)" xlink:href="#aE"/></g><path fill="#333" d="M68 110l352-940h113L181 110H68" id="aM"/><path fill="#333" d="M113 0L28-550h92c21 156 44 310 63 469 21-159 48-312 72-469h91c23 157 49 310 71 469 22-157 45-313 67-469h89L484 0H370c-23-157-48-312-70-469-23 157-48 313-72 469H113" id="aN"/><path fill="#333" d="M523-197c3 120-69 207-183 207-83 1-137-45-149-115V0H84v-730h108c0 96 0 192-3 285h3c9-71 67-116 148-115 115-1 183 88 183 208v155zm-331-6c-1 73 40 119 110 119 72 0 113-44 113-119v-144c1-74-41-119-113-119-69 0-110 47-110 119v144" id="aO"/><g id="E"><use transform="matrix(0.017777777777777778,0,0,0.017777777777777778,0,0)" xlink:href="#ar"/><use transform="matrix(0.017777777777777778,0,0,0.017777777777777778,10.666666666666666,0)" xlink:href="#aC"/><use transform="matrix(0.017777777777777778,0,0,0.017777777777777778,21.333333333333332,0)" xlink:href="#aC"/><use transform="matrix(0.017777777777777778,0,0,0.017777777777777778,32,0)" xlink:href="#aM"/><use transform="matrix(0.017777777777777778,0,0,0.017777777777777778,42.666666666666664,0)" xlink:href="#aN"/><use transform="matrix(0.017777777777777778,0,0,0.017777777777777778,53.33333333333333,0)" xlink:href="#aj"/><use transform="matrix(0.017777777777777778,0,0,0.017777777777777778,63.99999999999999,0)" xlink:href="#aO"/></g><g id="F"><use transform="matrix(0.017777777777777778,0,0,0.017777777777777778,0,0)" xlink:href="#ax"/><use transform="matrix(0.017777777777777778,0,0,0.017777777777777778,10.666666666666666,0)" xlink:href="#au"/><use transform="matrix(0.017777777777777778,0,0,0.017777777777777778,21.333333333333332,0)" xlink:href="#at"/></g><g id="G"><use transform="matrix(0.017777777777777778,0,0,0.017777777777777778,0,0)" xlink:href="#az"/><use transform="matrix(0.017777777777777778,0,0,0.017777777777777778,10.666666666666666,0)" xlink:href="#ar"/><use transform="matrix(0.017777777777777778,0,0,0.017777777777777778,21.333333333333332,0)" xlink:href="#ah"/><use transform="matrix(0.017777777777777778,0,0,0.017777777777777778,32,0)" xlink:href="#ai"/><use transform="matrix(0.017777777777777778,0,0,0.017777777777777778,42.666666666666664,0)" xlink:href="#aB"/><use transform="matrix(0.017777777777777778,0,0,0.017777777777777778,53.33333333333333,0)" xlink:href="#ar"/><use transform="matrix(0.017777777777777778,0,0,0.017777777777777778,63.99999999999999,0)" xlink:href="#aE"/></g><g id="H"><use transform="matrix(0.017777777777777778,0,0,0.017777777777777778,0,0)" xlink:href="#ao"/><use transform="matrix(0.017777777777777778,0,0,0.017777777777777778,10.666666666666666,0)" xlink:href="#aE"/><use transform="matrix(0.017777777777777778,0,0,0.017777777777777778,21.333333333333332,0)" xlink:href="#aj"/><use transform="matrix(0.017777777777777778,0,0,0.017777777777777778,32,0)" xlink:href="#aB"/><use transform="matrix(0.017777777777777778,0,0,0.017777777777777778,42.666666666666664,0)" xlink:href="#aj"/><use transform="matrix(0.017777777777777778,0,0,0.017777777777777778,53.33333333333333,0)" xlink:href="#ak"/><use transform="matrix(0.017777777777777778,0,0,0.017777777777777778,63.99999999999999,0)" xlink:href="#ao"/><use transform="matrix(0.017777777777777778,0,0,0.017777777777777778,74.66666666666666,0)" xlink:href="#ai"/><use transform="matrix(0.017777777777777778,0,0,0.017777777777777778,85.33333333333333,0)" xlink:href="#ar"/><use transform="matrix(0.017777777777777778,0,0,0.017777777777777778,96,0)" xlink:href="#ah"/><use transform="matrix(0.017777777777777778,0,0,0.017777777777777778,106.66666666666667,0)" xlink:href="#au"/></g><g id="I"><use transform="matrix(0.017777777777777778,0,0,0.017777777777777778,0,0)" xlink:href="#at"/><use transform="matrix(0.017777777777777778,0,0,0.017777777777777778,10.666666666666666,0)" xlink:href="#au"/><use transform="matrix(0.017777777777777778,0,0,0.017777777777777778,21.333333333333332,0)" xlink:href="#aF"/></g><g id="J"><use transform="matrix(0.017777777777777778,0,0,0.017777777777777778,0,0)" xlink:href="#ag"/><use transform="matrix(0.017777777777777778,0,0,0.017777777777777778,10.666666666666666,0)" xlink:href="#an"/><use transform="matrix(0.017777777777777778,0,0,0.017777777777777778,21.333333333333332,0)" xlink:href="#ak"/><use transform="matrix(0.017777777777777778,0,0,0.017777777777777778,32,0)" xlink:href="#ap"/><use transform="matrix(0.017777777777777778,0,0,0.017777777777777778,42.666666666666664,0)" xlink:href="#aA"/><use transform="matrix(0.017777777777777778,0,0,0.017777777777777778,53.33333333333333,0)" xlink:href="#ah"/><use transform="matrix(0.017777777777777778,0,0,0.017777777777777778,63.99999999999999,0)" xlink:href="#al"/><use transform="matrix(0.017777777777777778,0,0,0.017777777777777778,74.66666666666666,0)" xlink:href="#ar"/></g><g id="K"><use transform="matrix(0.017777777777777778,0,0,0.017777777777777778,0,0)" xlink:href="#at"/><use transform="matrix(0.017777777777777778,0,0,0.017777777777777778,10.666666666666666,0)" xlink:href="#au"/><use transform="matrix(0.017777777777777778,0,0,0.017777777777777778,21.333333333333332,0)" xlink:href="#at"/></g><path fill="#333" d="M88 0v-730h442v99H194v218h310v100H196V0H88" id="aP"/><g id="L"><use transform="matrix(0.017777777777777778,0,0,0.017777777777777778,0,0)" xlink:href="#aP"/><use transform="matrix(0.017777777777777778,0,0,0.017777777777777778,10.666666666666666,0)" xlink:href="#ar"/><use transform="matrix(0.017777777777777778,0,0,0.017777777777777778,21.333333333333332,0)" xlink:href="#ao"/><use transform="matrix(0.017777777777777778,0,0,0.017777777777777778,32,0)" xlink:href="#al"/><use transform="matrix(0.017777777777777778,0,0,0.017777777777777778,42.666666666666664,0)" xlink:href="#aA"/><use transform="matrix(0.017777777777777778,0,0,0.017777777777777778,53.33333333333333,0)" xlink:href="#aE"/><use transform="matrix(0.017777777777777778,0,0,0.017777777777777778,63.99999999999999,0)" xlink:href="#ar"/></g><path fill="#333" d="M400 0v-152H73v-162l268-416h119L178-288v39h222v-171h108V0H400" id="aQ"/><g id="M"><use transform="matrix(0.017777777777777778,0,0,0.017777777777777778,0,0)" xlink:href="#aQ"/><use transform="matrix(0.017777777777777778,0,0,0.017777777777777778,10.666666666666666,0)" xlink:href="#au"/><use transform="matrix(0.017777777777777778,0,0,0.017777777777777778,21.333333333333332,0)" xlink:href="#aF"/></g><path fill="#333" d="M541-516c0 102-60 176-138 202L551 0H428L295-300H192V0H84v-730h229c138 3 225 77 228 214zm-110 2c1-71-48-121-118-120H192v238h121c71 1 119-47 118-118" id="aR"/><g id="N"><use transform="matrix(0.017777777777777778,0,0,0.017777777777777778,0,0)" xlink:href="#aR"/><use transform="matrix(0.017777777777777778,0,0,0.017777777777777778,10.666666666666666,0)" xlink:href="#aj"/><use transform="matrix(0.017777777777777778,0,0,0.017777777777777778,21.333333333333332,0)" xlink:href="#aL"/><use transform="matrix(0.017777777777777778,0,0,0.017777777777777778,32,0)" xlink:href="#ai"/><use transform="matrix(0.017777777777777778,0,0,0.017777777777777778,42.666666666666664,0)" xlink:href="#ap"/><use transform="matrix(0.017777777777777778,0,0,0.017777777777777778,53.33333333333333,0)" xlink:href="#al"/><use transform="matrix(0.017777777777777778,0,0,0.017777777777777778,63.99999999999999,0)" xlink:href="#aE"/><use transform="matrix(0.017777777777777778,0,0,0.017777777777777778,74.66666666666666,0)" xlink:href="#ar"/><use transform="matrix(0.017777777777777778,0,0,0.017777777777777778,85.33333333333333,0)" xlink:href="#aE"/><use transform="matrix(0.017777777777777778,0,0,0.017777777777777778,96,0)" xlink:href="#ap"/><use transform="matrix(0.017777777777777778,0,0,0.017777777777777778,106.66666666666667,0)" xlink:href="#aj"/></g><g id="O"><use transform="matrix(0.017777777777777778,0,0,0.017777777777777778,0,0)" xlink:href="#aj"/><use transform="matrix(0.017777777777777778,0,0,0.017777777777777778,10.666666666666666,0)" xlink:href="#ak"/></g><g id="P"><use transform="matrix(0.017777777777777778,0,0,0.017777777777777778,0,0)" xlink:href="#am"/><use transform="matrix(0.017777777777777778,0,0,0.017777777777777778,10.666666666666666,0)" xlink:href="#ai"/><use transform="matrix(0.017777777777777778,0,0,0.017777777777777778,21.333333333333332,0)" xlink:href="#ap"/><use transform="matrix(0.017777777777777778,0,0,0.017777777777777778,32,0)" xlink:href="#al"/><use transform="matrix(0.017777777777777778,0,0,0.017777777777777778,42.666666666666664,0)" xlink:href="#aj"/><use transform="matrix(0.017777777777777778,0,0,0.017777777777777778,53.33333333333333,0)" xlink:href="#aq"/><use transform="matrix(0.017777777777777778,0,0,0.017777777777777778,63.99999999999999,0)" xlink:href="#ar"/></g><g id="Q"><use transform="matrix(0.017777777777777778,0,0,0.017777777777777778,0,0)" xlink:href="#aQ"/><use transform="matrix(0.017777777777777778,0,0,0.017777777777777778,10.666666666666666,0)" xlink:href="#au"/><use transform="matrix(0.017777777777777778,0,0,0.017777777777777778,21.333333333333332,0)" xlink:href="#at"/></g><g id="R"><use transform="matrix(0.017777777777777778,0,0,0.017777777777777778,0,0)" xlink:href="#ay"/><use transform="matrix(0.017777777777777778,0,0,0.017777777777777778,10.666666666666666,0)" xlink:href="#ar"/><use transform="matrix(0.017777777777777778,0,0,0.017777777777777778,21.333333333333332,0)" xlink:href="#aE"/></g><g id="S"><use transform="matrix(0.017777777777777778,0,0,0.017777777777777778,0,0)" xlink:href="#ao"/><use transform="matrix(0.017777777777777778,0,0,0.017777777777777778,10.666666666666666,0)" xlink:href="#aE"/><use transform="matrix(0.017777777777777778,0,0,0.017777777777777778,21.333333333333332,0)" xlink:href="#aj"/><use transform="matrix(0.017777777777777778,0,0,0.017777777777777778,32,0)" xlink:href="#aB"/><use transform="matrix(0.017777777777777778,0,0,0.017777777777777778,42.666666666666664,0)" xlink:href="#aj"/><use transform="matrix(0.017777777777777778,0,0,0.017777777777777778,53.33333333333333,0)" xlink:href="#ak"/><use transform="matrix(0.017777777777777778,0,0,0.017777777777777778,63.99999999999999,0)" xlink:href="#ao"/><use transform="matrix(0.017777777777777778,0,0,0.017777777777777778,74.66666666666666,0)" xlink:href="#ai"/><use transform="matrix(0.017777777777777778,0,0,0.017777777777777778,85.33333333333333,0)" xlink:href="#ar"/><use transform="matrix(0.017777777777777778,0,0,0.017777777777777778,96,0)" xlink:href="#ah"/></g><g id="T"><use transform="matrix(0.03333333333333332,0,0,0.03333333333333332,0,0)" xlink:href="#at"/><use transform="matrix(0.03333333333333332,0,0,0.03333333333333332,19.999999999999993,0)" xlink:href="#aM"/><use transform="matrix(0.03333333333333332,0,0,0.03333333333333332,39.999999999999986,0)" xlink:href="#ax"/><use transform="matrix(0.03333333333333332,0,0,0.03333333333333332,59.99999999999998,0)" xlink:href="#aF"/></g><g id="U"><use transform="matrix(0.03333333333333332,0,0,0.03333333333333332,0,0)" xlink:href="#ay"/><use transform="matrix(0.03333333333333332,0,0,0.03333333333333332,19.999999999999993,0)" xlink:href="#ai"/><use transform="matrix(0.03333333333333332,0,0,0.03333333333333332,39.999999999999986,0)" xlink:href="#ar"/><use transform="matrix(0.03333333333333332,0,0,0.03333333333333332,59.99999999999998,0)" xlink:href="#ap"/></g><path fill="#333" d="M523-202c1 133-89 214-225 212C176 12 86-59 78-169h108c6 56 49 85 113 84 104 4 116-78 116-188 0-74-40-117-115-116-49 0-85 27-100 62H93l5-403h398v98H201l-2 227h3c13-50 67-76 133-75 121 0 190 82 188 207v71" id="aS"/><g id="V"><use transform="matrix(0.017777777777777778,0,0,0.017777777777777778,0,0)" xlink:href="#aS"/><use transform="matrix(0.017777777777777778,0,0,0.017777777777777778,10.666666666666666,0)" xlink:href="#au"/><use transform="matrix(0.017777777777777778,0,0,0.017777777777777778,21.333333333333332,0)" xlink:href="#at"/></g><g id="W"><use transform="matrix(0.017777777777777778,0,0,0.017777777777777778,0,0)" xlink:href="#ag"/><use transform="matrix(0.017777777777777778,0,0,0.017777777777777778,10.666666666666666,0)" xlink:href="#an"/><use transform="matrix(0.017777777777777778,0,0,0.017777777777777778,21.333333333333332,0)" xlink:href="#ak"/><use transform="matrix(0.017777777777777778,0,0,0.017777777777777778,32,0)" xlink:href="#al"/><use transform="matrix(0.017777777777777778,0,0,0.017777777777777778,42.666666666666664,0)" xlink:href="#aE"/><use transform="matrix(0.017777777777777778,0,0,0.017777777777777778,53.33333333333333,0)" xlink:href="#an"/><use transform="matrix(0.017777777777777778,0,0,0.017777777777777778,63.99999999999999,0)" xlink:href="#ah"/></g><g id="X"><use transform="matrix(0.017777777777777778,0,0,0.017777777777777778,0,0)" xlink:href="#aS"/><use transform="matrix(0.017777777777777778,0,0,0.017777777777777778,10.666666666666666,0)" xlink:href="#au"/><use transform="matrix(0.017777777777777778,0,0,0.017777777777777778,21.333333333333332,0)" xlink:href="#av"/></g><g id="Y"><use transform="matrix(0.017777777777777778,0,0,0.017777777777777778,0,0)" xlink:href="#ag"/><use transform="matrix(0.017777777777777778,0,0,0.017777777777777778,10.666666666666666,0)" xlink:href="#an"/><use transform="matrix(0.017777777777777778,0,0,0.017777777777777778,21.333333333333332,0)" xlink:href="#ak"/><use transform="matrix(0.017777777777777778,0,0,0.017777777777777778,32,0)" xlink:href="#al"/><use transform="matrix(0.017777777777777778,0,0,0.017777777777777778,42.666666666666664,0)" xlink:href="#aE"/><use transform="matrix(0.017777777777777778,0,0,0.017777777777777778,53.33333333333333,0)" xlink:href="#an"/><use transform="matrix(0.017777777777777778,0,0,0.017777777777777778,63.99999999999999,0)" xlink:href="#ah"/><use transform="matrix(0.017777777777777778,0,0,0.017777777777777778,74.66666666666666,0)" xlink:href="#ar"/><use transform="matrix(0.017777777777777778,0,0,0.017777777777777778,85.33333333333333,0)" xlink:href="#aE"/></g><path fill="#333" d="M526-207c0 93-45 162-110 192l119 195H415L312 10C165 11 74-65 74-207v-317c-2-131 93-218 226-216 139 3 226 79 226 216v317zm-344 0c-1 73 45 123 118 122 73 1 119-49 118-122v-317c1-73-45-122-118-121-73-1-119 48-118 121v317" id="aT"/><g id="Z"><use transform="matrix(0.017777777777777778,0,0,0.017777777777777778,0,0)" xlink:href="#aT"/><use transform="matrix(0.017777777777777778,0,0,0.017777777777777778,10.666666666666666,0)" xlink:href="#aA"/><use transform="matrix(0.017777777777777778,0,0,0.017777777777777778,21.333333333333332,0)" xlink:href="#ai"/><use transform="matrix(0.017777777777777778,0,0,0.017777777777777778,32,0)" xlink:href="#aj"/><use transform="matrix(0.017777777777777778,0,0,0.017777777777777778,42.666666666666664,0)" xlink:href="#aE"/><use transform="matrix(0.017777777777777778,0,0,0.017777777777777778,53.33333333333333,0)" xlink:href="#aj"/></g><path fill="#333" d="M498-515c0 123-75 199-195 206v98H202l-1-191h65c71 1 125-43 124-113 1-71-53-114-125-114H128v-101h134c142 3 236 75 236 215zM331-59c0 48-38 64-94 64-37 0-66-26-65-63 0-48 39-63 95-63 38 0 64 25 64 62" id="aU"/><g id="aa"><use transform="matrix(0.017777777777777778,0,0,0.017777777777777778,0,0)" xlink:href="#aR"/><use transform="matrix(0.017777777777777778,0,0,0.017777777777777778,10.666666666666666,0)" xlink:href="#aj"/><use transform="matrix(0.017777777777777778,0,0,0.017777777777777778,21.333333333333332,0)" xlink:href="#aC"/><use transform="matrix(0.017777777777777778,0,0,0.017777777777777778,32,0)" xlink:href="#ar"/><use transform="matrix(0.017777777777777778,0,0,0.017777777777777778,42.666666666666664,0)" xlink:href="#aE"/><use transform="matrix(0.017777777777777778,0,0,0.017777777777777778,53.33333333333333,0)" xlink:href="#ar"/><use transform="matrix(0.017777777777777778,0,0,0.017777777777777778,63.99999999999999,0)" xlink:href="#aE"/><use transform="matrix(0.017777777777777778,0,0,0.017777777777777778,74.66666666666666,0)" xlink:href="#aU"/></g><g id="ab"><use transform="matrix(0.017777777777777778,0,0,0.017777777777777778,0,0)" xlink:href="#at"/><use transform="matrix(0.017777777777777778,0,0,0.017777777777777778,10.666666666666666,0)" xlink:href="#au"/><use transform="matrix(0.017777777777777778,0,0,0.017777777777777778,21.333333333333332,0)" xlink:href="#aQ"/></g><g id="ac"><use transform="matrix(0.017777777777777778,0,0,0.017777777777777778,0,0)" xlink:href="#am"/><use transform="matrix(0.017777777777777778,0,0,0.017777777777777778,10.666666666666666,0)" xlink:href="#ai"/></g><g id="ad"><use transform="matrix(0.017777777777777778,0,0,0.017777777777777778,0,0)" xlink:href="#at"/><use transform="matrix(0.017777777777777778,0,0,0.017777777777777778,10.666666666666666,0)" xlink:href="#au"/><use transform="matrix(0.017777777777777778,0,0,0.017777777777777778,21.333333333333332,0)" xlink:href="#aS"/></g><g id="ae"><use transform="matrix(0.017777777777777778,0,0,0.017777777777777778,0,0)" xlink:href="#aJ"/><use transform="matrix(0.017777777777777778,0,0,0.017777777777777778,10.666666666666666,0)" xlink:href="#ar"/><use transform="matrix(0.017777777777777778,0,0,0.017777777777777778,21.333333333333332,0)" xlink:href="#ap"/><use transform="matrix(0.017777777777777778,0,0,0.017777777777777778,32,0)" xlink:href="#ar"/><use transform="matrix(0.017777777777777778,0,0,0.017777777777777778,42.666666666666664,0)" xlink:href="#aE"/></g><g id="af"><use transform="matrix(0.017777777777777778,0,0,0.017777777777777778,0,0)" xlink:href="#aP"/><use transform="matrix(0.017777777777777778,0,0,0.017777777777777778,10.666666666666666,0)" xlink:href="#ar"/><use transform="matrix(0.017777777777777778,0,0,0.017777777777777778,21.333333333333332,0)" xlink:href="#ao"/><use transform="matrix(0.017777777777777778,0,0,0.017777777777777778,32,0)" xlink:href="#aA"/><use transform="matrix(0.017777777777777778,0,0,0.017777777777777778,42.666666666666664,0)" xlink:href="#aE"/><use transform="matrix(0.017777777777777778,0,0,0.017777777777777778,53.33333333333333,0)" xlink:href="#ar"/><use transform="matrix(0.017777777777777778,0,0,0.017777777777777778,63.99999999999999,0)" xlink:href="#au"/></g></defs></g></svg>